<svg width="25" height="25" viewBox="0 0 25 25" fill="none" xmlns="http://www.w3.org/2000/svg">
<path d="M10.3536 14.6479C7.96741 12.2617 7.42862 9.87546 7.30707 8.91943C7.2731 8.65508 7.36407 8.38998 7.55319 8.20219L9.48422 6.27201C9.76828 5.98813 9.81869 5.54571 9.60577 5.2052L6.5312 0.431065C6.29565 0.0540168 5.812 -0.0820636 5.41439 0.116841L0.478619 2.44141C0.157092 2.59973 -0.0320252 2.94135 0.0044806 3.29788C0.263101 5.75477 1.33422 11.7944 7.26957 17.7302C13.2049 23.666 19.2437 24.7367 21.7019 24.9953C22.0584 25.0318 22.4 24.8427 22.5584 24.5212L24.8829 19.5854C25.0811 19.1886 24.9459 18.7063 24.5704 18.4703L19.7963 15.3966C19.456 15.1834 19.0136 15.2335 18.7295 15.5173L16.7993 17.4483C16.6115 17.6374 16.3464 17.7284 16.0821 17.6944C15.126 17.5729 12.7398 17.0341 10.3536 14.6479V14.6479Z" fill="#2A303E"/>
<path d="M19.8303 13.362C19.3542 13.362 18.9682 12.9761 18.9682 12.4999C18.9642 8.93082 16.0718 6.03848 12.5027 6.03444C12.0266 6.03444 11.6406 5.64848 11.6406 5.17237C11.6406 4.69626 12.0266 4.3103 12.5027 4.3103C17.0236 4.31529 20.6874 7.979 20.6923 12.4999C20.6923 12.9761 20.3064 13.362 19.8303 13.362Z" fill="#2A303E"/>
<path d="M24.1406 13.3621C23.6645 13.3621 23.2786 12.9761 23.2786 12.5C23.2719 6.55141 18.4513 1.73079 12.5027 1.72414C12.0266 1.72414 11.6406 1.33818 11.6406 0.862069C11.6406 0.385961 12.0266 0 12.5027 0C19.4031 0.00760167 24.9951 5.59959 25.0027 12.5C25.0027 12.7286 24.9119 12.9479 24.7502 13.1096C24.5885 13.2712 24.3693 13.3621 24.1406 13.3621Z" fill="#2A303E"/>
</svg>
