<svg width="18" height="18" viewBox="0 0 18 18" fill="none" xmlns="http://www.w3.org/2000/svg">
<path d="M9 0C4.02942 0 0 4.02942 0 9C0 13.9706 4.02942 18 9 18C13.9706 18 18 13.9706 18 9C17.9942 4.03182 13.9682 0.00577016 9 0ZM9 17.4194C4.35012 17.4194 0.580645 13.6499 0.580645 9C0.580645 4.35012 4.35012 0.580645 9 0.580645C13.6499 0.580645 17.4194 4.35012 17.4194 9C17.4142 13.6478 13.6478 17.4142 9 17.4194Z" fill="#3E4657"/>
<path d="M13.1058 4.89424C12.9924 4.7809 12.8086 4.7809 12.6953 4.89424L9.00004 8.58946L5.30481 4.89424C5.19344 4.77891 5.00963 4.77571 4.8943 4.88709C4.77897 4.99846 4.77577 5.18227 4.88715 5.2976C4.88947 5.30004 4.89187 5.30239 4.8943 5.30475L8.58952 8.99998L4.8943 12.6952C4.77897 12.8066 4.77577 12.9904 4.88718 13.1057C4.9986 13.2211 5.18237 13.2242 5.2977 13.1128C5.30013 13.1105 5.30249 13.1081 5.30481 13.1057L9.00004 9.4105L12.6953 13.1057C12.8106 13.2171 12.9944 13.2139 13.1058 13.0986C13.2145 12.9861 13.2145 12.8077 13.1058 12.6952L9.41056 8.99998L13.1058 5.30475C13.2191 5.19138 13.2191 5.00761 13.1058 4.89424Z" fill="#3E4657"/>
</svg>
