<svg width="25" height="25" viewBox="0 0 25 25" fill="none" xmlns="http://www.w3.org/2000/svg">
<path d="M18.2037 6.79742C18.0463 6.64001 17.791 6.64001 17.6336 6.79742L12.5013 11.9297L7.36904 6.79742C7.21436 6.63724 6.95906 6.6328 6.79888 6.78749C6.6387 6.94218 6.63427 7.19747 6.78895 7.35765C6.79218 7.36103 6.79551 7.3643 6.79888 7.36758L11.9311 12.4998L6.79888 17.6321C6.6387 17.7868 6.63427 18.0421 6.789 18.2023C6.94374 18.3624 7.19898 18.3669 7.35917 18.2121C7.36254 18.2089 7.36582 18.2056 7.36904 18.2023L12.5013 13.07L17.6336 18.2023C17.7937 18.357 18.049 18.3526 18.2037 18.1924C18.3547 18.0361 18.3547 17.7884 18.2037 17.6321L13.0715 12.4998L18.2037 7.36758C18.3611 7.21012 18.3611 6.95488 18.2037 6.79742Z" fill="#3E4657"/>
</svg>
