<svg width="15" height="15" viewBox="0 0 15 15" fill="none" xmlns="http://www.w3.org/2000/svg">
<path d="M7.5 0C3.35826 0 0 3.35826 0 7.5C0 11.6417 3.35826 15 7.5 15C11.6417 15 15 11.6417 15 7.5C15 3.35826 11.6417 0 7.5 0ZM7.5 13.7277C4.06138 13.7277 1.27232 10.9386 1.27232 7.5C1.27232 4.06138 4.06138 1.27232 7.5 1.27232C10.9386 1.27232 13.7277 4.06138 13.7277 7.5C13.7277 10.9386 10.9386 13.7277 7.5 13.7277Z" fill="#3E4657"/>
<path d="M6.69643 4.55357C6.69643 4.76669 6.78109 4.97108 6.93179 5.12178C7.08249 5.27248 7.28688 5.35714 7.5 5.35714C7.71312 5.35714 7.91751 5.27248 8.06821 5.12178C8.21891 4.97108 8.30357 4.76669 8.30357 4.55357C8.30357 4.34045 8.21891 4.13606 8.06821 3.98536C7.91751 3.83466 7.71312 3.75 7.5 3.75C7.28688 3.75 7.08249 3.83466 6.93179 3.98536C6.78109 4.13606 6.69643 4.34045 6.69643 4.55357ZM7.90179 6.42857H7.09821C7.02455 6.42857 6.96429 6.48884 6.96429 6.5625V11.1161C6.96429 11.1897 7.02455 11.25 7.09821 11.25H7.90179C7.97545 11.25 8.03571 11.1897 8.03571 11.1161V6.5625C8.03571 6.48884 7.97545 6.42857 7.90179 6.42857Z" fill="#3E4657"/>
</svg>
