<svg width="19" height="19" viewBox="0 0 19 19" fill="none" xmlns="http://www.w3.org/2000/svg">
<path d="M9.39338 6.76825C7.74076 6.76825 6.3921 8.11691 6.3921 9.76953C6.3921 11.4221 7.74076 12.7708 9.39338 12.7708C11.046 12.7708 12.3947 11.4221 12.3947 9.76953C12.3947 8.11691 11.046 6.76825 9.39338 6.76825ZM18.395 9.76953C18.395 8.52669 18.4062 7.29511 18.3364 6.05452C18.2666 4.61355 17.9379 3.33468 16.8842 2.28097C15.8282 1.22501 14.5516 0.898538 13.1106 0.82874C11.8678 0.758943 10.6362 0.770201 9.39563 0.770201C8.15279 0.770201 6.92121 0.758943 5.68062 0.82874C4.23965 0.898538 2.96078 1.22726 1.90707 2.28097C0.851107 3.33694 0.524636 4.61355 0.454839 6.05452C0.385042 7.29736 0.3963 8.52894 0.3963 9.76953C0.3963 11.0101 0.385042 12.244 0.454839 13.4845C0.524636 14.9255 0.853358 16.2044 1.90707 17.2581C2.96303 18.3141 4.23965 18.6405 5.68062 18.7103C6.92346 18.7801 8.15504 18.7689 9.39563 18.7689C10.6385 18.7689 11.8701 18.7801 13.1106 18.7103C14.5516 18.6405 15.8305 18.3118 16.8842 17.2581C17.9402 16.2021 18.2666 14.9255 18.3364 13.4845C18.4085 12.244 18.395 11.0124 18.395 9.76953V9.76953ZM9.39338 14.3874C6.8379 14.3874 4.77551 12.325 4.77551 9.76953C4.77551 7.21405 6.8379 5.15166 9.39338 5.15166C11.9489 5.15166 14.0112 7.21405 14.0112 9.76953C14.0112 12.325 11.9489 14.3874 9.39338 14.3874ZM14.2004 6.04101C13.6037 6.04101 13.1219 5.55919 13.1219 4.96253C13.1219 4.36588 13.6037 3.88405 14.2004 3.88405C14.797 3.88405 15.2789 4.36588 15.2789 4.96253C15.279 5.10421 15.2513 5.24453 15.1971 5.37546C15.143 5.50639 15.0636 5.62535 14.9634 5.72553C14.8632 5.82571 14.7442 5.90514 14.6133 5.95928C14.4824 6.01342 14.3421 6.04119 14.2004 6.04101V6.04101Z" fill="#E5E5E5"/>
</svg>
