<svg width="182" height="44" viewBox="0 0 182 44" fill="none" xmlns="http://www.w3.org/2000/svg">
<path d="M20.002 42.4769C22.4176 41.7656 24.049 41.0604 25.6712 39.3541L25.6922 39.332C26.9742 37.9838 29.7013 35.1158 29.7013 29.083C29.8139 28.1955 29.5543 27.0559 29.0999 25.8073C28.8898 25.2301 28.6381 24.6296 28.3622 24.02C31.8292 31.6821 22.0361 32.8281 19.2315 30.5336C7.55272 20.9789 16.6197 6.68956 22.6131 0.739258C-2.55389 23.1284 5.74027 43.1714 20.002 42.4769Z" fill="white"/>
<path d="M22.6131 0.739258C20.163 2.23654 14.5944 5.75953 13.4779 6.70518C12.0823 7.88725 0.219346 16.6345 0.0332603 25.8073C-0.524997 34.6964 6.0345 41.316 12.9197 42.6872C14.8373 42.9495 17.1302 43.3227 20.002 42.4769C5.74027 43.1714 -2.55388 23.1284 22.6131 0.739258Z" fill="url(#paint0_linear)"/>
<path fill-rule="evenodd" clip-rule="evenodd" d="M19.2315 30.5336C7.55272 20.9789 16.6198 6.68956 22.6131 0.739258C20.7177 6.76977 22.6287 11.3694 24.1959 15.1418C24.4439 15.7388 24.6833 16.3151 24.8977 16.8731C25.2874 17.8873 25.9483 19.1764 26.6581 20.5609C27.2334 21.683 27.8409 22.8679 28.3622 24.02C31.8292 31.6821 22.0361 32.8281 19.2315 30.5336Z" fill="url(#paint1_linear)"/>
<path d="M19.2315 30.5336C22.1788 32.9448 28.8553 33.7805 29.7013 29.083C29.8139 28.1955 29.5543 27.0559 29.0999 25.8073C28.8898 25.2301 28.6381 24.6296 28.3622 24.02C31.8292 31.6821 22.0361 32.8281 19.2315 30.5336Z" fill="url(#paint2_linear)"/>
<path d="M22.6131 0.739258C20.163 2.23654 14.5944 5.75953 13.4779 6.70518C12.0823 7.88725 0.219346 16.6345 0.0332603 25.8073C-0.524997 34.6964 6.0345 41.316 12.9197 42.6872C14.8373 42.9495 17.1302 43.3227 20.002 42.4769C5.74027 43.1714 -2.55389 23.1284 22.6131 0.739258Z" fill="url(#paint3_linear)"/>
<path fill-rule="evenodd" clip-rule="evenodd" d="M19.2315 30.5336C7.55272 20.9789 16.6198 6.68956 22.6131 0.739258C20.7177 6.76977 22.6287 11.3694 24.1959 15.1418C24.4439 15.7388 24.6833 16.3151 24.8977 16.8731C25.2874 17.8873 25.9483 19.1764 26.6581 20.5609C27.2334 21.683 27.8409 22.8679 28.3622 24.02C31.8292 31.6821 22.0361 32.8281 19.2315 30.5336Z" fill="url(#paint4_linear)"/>
<path d="M22.6131 0.739258C20.163 2.23654 14.5944 5.75953 13.4779 6.70518C12.0823 7.88725 0.219346 16.6345 0.0332603 25.8073C-0.524997 34.6964 6.0345 41.316 12.9197 42.6872C14.8373 42.9495 17.1302 43.3227 20.002 42.4769C5.74027 43.1714 -2.55388 23.1284 22.6131 0.739258Z" fill="#3378C4"/>
<path d="M43.4756 19.8264C43.2713 19.8264 43.1133 19.7603 43.0019 19.6281C42.909 19.4771 42.8811 19.3071 42.9183 19.1183L46.764 0.708086C46.8011 0.500381 46.9033 0.33044 47.0705 0.198265C47.2377 0.0660882 47.4142 0 47.6 0H55.0127C57.0749 0 58.7284 0.434292 59.9731 1.30288C61.2365 2.17146 61.8681 3.42713 61.8681 5.06989C61.8681 5.54195 61.8124 6.03289 61.7009 6.54271C61.2365 8.71417 60.2983 10.3192 58.8863 11.3577C57.4929 12.3962 55.5794 12.9155 53.1456 12.9155H49.3835L48.1016 19.1183C48.0645 19.326 47.9623 19.4959 47.7951 19.6281C47.6279 19.7603 47.4514 19.8264 47.2656 19.8264H43.4756ZM53.3407 9.00684C54.121 9.00684 54.7991 8.7897 55.375 8.3554C55.9695 7.92111 56.3597 7.298 56.5454 6.48606C56.6012 6.16506 56.629 5.88183 56.629 5.63636C56.629 5.08877 56.4711 4.67336 56.1553 4.39013C55.8395 4.08801 55.3007 3.93695 54.539 3.93695H51.1949L50.1359 9.00684H53.3407Z" fill="white"/>
<path d="M81.2292 0C81.3964 0 81.5172 0.0472056 81.5915 0.141617C81.6844 0.236028 81.7308 0.349322 81.7308 0.481498C81.7308 0.670321 81.6565 0.878026 81.5079 1.10461L73.2591 14.0484C72.2931 15.5779 71.4292 16.7391 70.6675 17.5322C69.9243 18.3252 69.0976 18.9106 68.1873 19.2882C67.2769 19.647 66.1437 19.8264 64.7874 19.8264H63.3105C63.1247 19.8264 62.9668 19.7603 62.8367 19.6281C62.7253 19.4959 62.6881 19.326 62.7253 19.1183L63.3662 16.116C63.4034 15.9083 63.5055 15.7384 63.6728 15.6062C63.84 15.474 64.0164 15.4079 64.2022 15.4079H65.2891C65.8278 15.4079 66.3016 15.2946 66.7103 15.0681C67.1376 14.8226 67.5742 14.4355 68.0201 13.9068L63.8678 0.878026C63.8492 0.840262 63.84 0.755292 63.84 0.623115C63.8585 0.453175 63.9421 0.311558 64.0908 0.198265C64.2394 0.0660882 64.4159 0 64.6202 0H68.2151C68.4009 0 68.5403 0.0472056 68.6332 0.141617C68.7446 0.236028 68.8282 0.387087 68.884 0.594792L71.3363 8.8369L76.6311 0.594792C76.854 0.198264 77.1699 0 77.5786 0H81.2292Z" fill="white"/>
<path d="M80.406 19.8264C80.2017 19.8264 80.0438 19.7603 79.9323 19.6281C79.8208 19.4959 79.7837 19.326 79.8208 19.1183L83.6665 0.708086C83.7037 0.500381 83.8059 0.33044 83.9731 0.198265C84.1403 0.0660882 84.3261 0 84.5304 0H87.5401C87.986 0 88.2739 0.207705 88.404 0.623115L91.4416 9.54499L98.2133 0.623115C98.3062 0.472057 98.4363 0.33044 98.6035 0.198265C98.7893 0.0660882 99.0122 0 99.2723 0H102.31C102.514 0 102.672 0.0660882 102.784 0.198265C102.858 0.311558 102.895 0.424851 102.895 0.538145C102.895 0.594792 102.886 0.651439 102.867 0.708086L99.0215 19.1183C98.9843 19.326 98.8822 19.4959 98.7149 19.6281C98.5477 19.7603 98.3713 19.8264 98.1855 19.8264H94.8135C94.6091 19.8264 94.4512 19.7603 94.3398 19.6281C94.2469 19.4771 94.219 19.3071 94.2562 19.1183L96.4298 8.66696L92.1661 14.4166C91.9803 14.6243 91.8038 14.7848 91.6366 14.8981C91.4694 15.0114 91.2743 15.0681 91.0514 15.0681H89.6023C89.2122 15.0681 88.9428 14.8509 88.7941 14.4166L86.8156 8.41205L84.5862 19.1183C84.549 19.326 84.4468 19.4959 84.2796 19.6281C84.1124 19.7603 83.9359 19.8264 83.7501 19.8264H80.406Z" fill="white"/>
<mask id="path-6-outside-1" maskUnits="userSpaceOnUse" x="37.1299" y="22.1733" width="145" height="22" fill="black">
<rect fill="white" x="37.1299" y="22.1733" width="145" height="22"/>
<path d="M58.0319 23.1733C58.1991 23.1733 58.3291 23.23 58.422 23.3433C58.4963 23.4188 58.5335 23.5132 58.5335 23.6265C58.5335 23.6643 58.5242 23.7115 58.5056 23.7681C58.487 23.8437 58.422 23.957 58.3105 24.108L51.3437 32.7183L55.0779 42.0367C55.0965 42.0745 55.1058 42.1217 55.1058 42.1783C55.1058 42.235 55.0965 42.2916 55.0779 42.3483C55.0593 42.5371 54.9757 42.6976 54.8271 42.8298C54.6785 42.9431 54.5113 42.9997 54.3255 42.9997H50.4241C50.164 42.9997 49.9689 42.9525 49.8388 42.8581C49.7274 42.7448 49.6345 42.6126 49.5602 42.4616L46.7456 35.2391H44.6276L43.1507 42.2916C43.1135 42.4993 43.0113 42.6693 42.8441 42.8015C42.6955 42.9336 42.519 42.9997 42.3146 42.9997H38.7197C38.5154 42.9997 38.3575 42.9336 38.246 42.8015C38.1531 42.6693 38.1159 42.4993 38.1345 42.2916L42.0081 23.8814C42.0453 23.6737 42.1474 23.5038 42.3146 23.3716C42.4818 23.2394 42.6583 23.1733 42.8441 23.1733H46.439C46.6434 23.1733 46.8013 23.2394 46.9128 23.3716C47.0057 23.466 47.0521 23.5888 47.0521 23.7398C47.0521 23.7776 47.0428 23.8248 47.0242 23.8814L45.5751 30.7074L47.2472 30.7357L52.7928 23.7115C53.1086 23.3527 53.4895 23.1733 53.9354 23.1733H58.0319Z"/>
<path d="M70.737 42.9997C70.5327 42.9997 70.3747 42.9336 70.2633 42.8015C70.1704 42.6504 70.1425 42.4805 70.1797 42.2916L73.2451 27.7051H68.0617L67.5323 30.2825C66.8634 33.4736 66.1389 35.9661 65.3586 37.7599C64.5783 39.5348 63.5565 40.8471 62.2932 41.6968C61.0299 42.5277 59.3578 42.962 57.2771 42.9997C57.0727 42.9997 56.9148 42.9242 56.8033 42.7731C56.7104 42.6598 56.664 42.5371 56.664 42.4049C56.664 42.3483 56.6733 42.3011 56.6918 42.2633L57.3328 39.2894C57.3514 39.1005 57.435 38.94 57.5836 38.8079C57.7322 38.6757 57.918 38.5907 58.1409 38.553C59.1813 38.383 60.0731 37.5522 60.8162 36.0605C61.5593 34.5499 62.2282 32.4068 62.8227 29.6311L64.021 23.8814C64.0581 23.6737 64.1603 23.5038 64.3275 23.3716C64.4947 23.2394 64.6712 23.1733 64.857 23.1733H78.4842C78.6699 23.1733 78.8279 23.2394 78.9579 23.3716C79.0508 23.466 79.0972 23.5888 79.0972 23.7398C79.0972 23.7776 79.088 23.8248 79.0694 23.8814L75.1958 42.2916C75.1586 42.4993 75.0565 42.6693 74.8893 42.8015C74.7221 42.9336 74.5456 42.9997 74.3598 42.9997H70.737Z"/>
<path d="M79.65 42.9997C79.4457 42.9997 79.2877 42.9336 79.1763 42.8015C79.0834 42.6504 79.0555 42.471 79.0927 42.2633L82.9384 23.8814C82.9755 23.6737 83.0777 23.5038 83.2449 23.3716C83.4121 23.2394 83.5979 23.1733 83.8023 23.1733H87.3972C87.6015 23.1733 87.7594 23.2394 87.8709 23.3716C87.9452 23.4849 87.9824 23.5982 87.9824 23.7115C87.9824 23.7681 87.9731 23.8248 87.9545 23.8814L85.5579 35.3807L95.9246 23.7115C96.2218 23.3527 96.5655 23.1733 96.9557 23.1733H100.188C100.374 23.1733 100.532 23.2394 100.662 23.3716C100.755 23.466 100.801 23.5888 100.801 23.7398C100.801 23.7776 100.792 23.8248 100.774 23.8814L96.9 42.2916C96.8628 42.4993 96.7606 42.6693 96.5934 42.8015C96.4262 42.9336 96.2497 42.9997 96.0639 42.9997H92.469C92.2647 42.9997 92.1068 42.9336 91.9953 42.8015C91.8838 42.6693 91.8467 42.4993 91.8838 42.2916L94.2247 31.2172L83.9137 42.4616C83.6351 42.8203 83.3006 42.9997 82.9105 42.9997H79.65Z"/>
<path d="M101.368 42.9997C101.163 42.9997 101.005 42.9336 100.894 42.8015C100.801 42.6693 100.773 42.4993 100.81 42.2916L104.656 23.8814C104.693 23.6737 104.795 23.5038 104.963 23.3716C105.13 23.2394 105.306 23.1733 105.492 23.1733H109.087C109.291 23.1733 109.449 23.2394 109.561 23.3716C109.654 23.466 109.7 23.5888 109.7 23.7398C109.7 23.7776 109.691 23.8248 109.672 23.8814L108.251 30.7074H115.106L116.528 23.8814C116.565 23.6737 116.667 23.5038 116.834 23.3716C117.001 23.2394 117.178 23.1733 117.364 23.1733H120.958C121.163 23.1733 121.321 23.2394 121.432 23.3716C121.525 23.466 121.572 23.5888 121.572 23.7398C121.572 23.7776 121.562 23.8248 121.544 23.8814L117.67 42.2916C117.633 42.4993 117.531 42.6693 117.364 42.8015C117.215 42.9336 117.038 42.9997 116.834 42.9997H113.239C113.035 42.9997 112.877 42.9336 112.765 42.8015C112.673 42.6504 112.645 42.4805 112.682 42.2916L114.159 35.2391H107.303L105.826 42.2916C105.789 42.4993 105.687 42.6693 105.52 42.8015C105.353 42.9336 105.167 42.9997 104.963 42.9997H101.368Z"/>
<path d="M122.104 42.9997C121.9 42.9997 121.742 42.9336 121.631 42.8015C121.538 42.6504 121.51 42.471 121.547 42.2633L125.393 23.8814C125.43 23.6737 125.532 23.5038 125.699 23.3716C125.866 23.2394 126.052 23.1733 126.257 23.1733H129.851C130.056 23.1733 130.214 23.2394 130.325 23.3716C130.399 23.4849 130.437 23.5982 130.437 23.7115C130.437 23.7681 130.427 23.8248 130.409 23.8814L128.012 35.3807L138.379 23.7115C138.676 23.3527 139.02 23.1733 139.41 23.1733H142.643C142.828 23.1733 142.986 23.2394 143.116 23.3716C143.209 23.466 143.256 23.5888 143.256 23.7398C143.256 23.7776 143.246 23.8248 143.228 23.8814L139.354 42.2916C139.317 42.4993 139.215 42.6693 139.048 42.8015C138.88 42.9336 138.704 42.9997 138.518 42.9997H134.923C134.719 42.9997 134.561 42.9336 134.45 42.8015C134.338 42.6693 134.301 42.4993 134.338 42.2916L136.679 31.2172L126.368 42.4616C126.089 42.8203 125.755 42.9997 125.365 42.9997H122.104Z"/>
<path d="M143.822 42.9997C143.618 42.9997 143.46 42.9336 143.348 42.8015C143.255 42.6693 143.227 42.4993 143.265 42.2916L147.11 23.8814C147.147 23.6737 147.25 23.5038 147.417 23.3716C147.584 23.2394 147.761 23.1733 147.946 23.1733H151.541C151.746 23.1733 151.903 23.2394 152.015 23.3716C152.108 23.466 152.154 23.5888 152.154 23.7398C152.154 23.7776 152.145 23.8248 152.126 23.8814L150.705 30.7074H157.561L158.982 23.8814C159.019 23.6737 159.121 23.5038 159.288 23.3716C159.456 23.2394 159.632 23.1733 159.818 23.1733H163.413C163.617 23.1733 163.775 23.2394 163.886 23.3716C163.979 23.466 164.026 23.5888 164.026 23.7398C164.026 23.7776 164.017 23.8248 163.998 23.8814L160.124 42.2916C160.087 42.4993 159.985 42.6693 159.818 42.8015C159.669 42.9336 159.493 42.9997 159.288 42.9997H155.693C155.489 42.9997 155.331 42.9336 155.22 42.8015C155.127 42.6504 155.099 42.4805 155.136 42.2916L156.613 35.2391H149.758L148.281 42.2916C148.244 42.4993 148.141 42.6693 147.974 42.8015C147.807 42.9336 147.621 42.9997 147.417 42.9997H143.822Z"/>
<path d="M164.252 42.9997C164.066 42.9997 163.908 42.9336 163.778 42.8015C163.667 42.6693 163.63 42.4993 163.667 42.2916L167.54 23.8814C167.578 23.6737 167.68 23.5038 167.847 23.3716C168.014 23.2394 168.191 23.1733 168.376 23.1733H180.387C180.573 23.1733 180.731 23.2394 180.861 23.3716C180.954 23.466 181 23.5888 181 23.7398C181 23.7776 180.991 23.8248 180.972 23.8814L180.359 26.7138C180.322 26.9215 180.22 27.1009 180.053 27.2519C179.886 27.3841 179.7 27.4502 179.496 27.4502H171.804L168.683 42.2916C168.646 42.4993 168.544 42.6693 168.376 42.8015C168.228 42.9336 168.051 42.9997 167.847 42.9997H164.252Z"/>
</mask>
<path d="M58.0319 23.1733C58.1991 23.1733 58.3291 23.23 58.422 23.3433C58.4963 23.4188 58.5335 23.5132 58.5335 23.6265C58.5335 23.6643 58.5242 23.7115 58.5056 23.7681C58.487 23.8437 58.422 23.957 58.3105 24.108L51.3437 32.7183L55.0779 42.0367C55.0965 42.0745 55.1058 42.1217 55.1058 42.1783C55.1058 42.235 55.0965 42.2916 55.0779 42.3483C55.0593 42.5371 54.9757 42.6976 54.8271 42.8298C54.6785 42.9431 54.5113 42.9997 54.3255 42.9997H50.4241C50.164 42.9997 49.9689 42.9525 49.8388 42.8581C49.7274 42.7448 49.6345 42.6126 49.5602 42.4616L46.7456 35.2391H44.6276L43.1507 42.2916C43.1135 42.4993 43.0113 42.6693 42.8441 42.8015C42.6955 42.9336 42.519 42.9997 42.3146 42.9997H38.7197C38.5154 42.9997 38.3575 42.9336 38.246 42.8015C38.1531 42.6693 38.1159 42.4993 38.1345 42.2916L42.0081 23.8814C42.0453 23.6737 42.1474 23.5038 42.3146 23.3716C42.4818 23.2394 42.6583 23.1733 42.8441 23.1733H46.439C46.6434 23.1733 46.8013 23.2394 46.9128 23.3716C47.0057 23.466 47.0521 23.5888 47.0521 23.7398C47.0521 23.7776 47.0428 23.8248 47.0242 23.8814L45.5751 30.7074L47.2472 30.7357L52.7928 23.7115C53.1086 23.3527 53.4895 23.1733 53.9354 23.1733H58.0319Z" fill="#3378C4"/>
<path d="M70.737 42.9997C70.5327 42.9997 70.3747 42.9336 70.2633 42.8015C70.1704 42.6504 70.1425 42.4805 70.1797 42.2916L73.2451 27.7051H68.0617L67.5323 30.2825C66.8634 33.4736 66.1389 35.9661 65.3586 37.7599C64.5783 39.5348 63.5565 40.8471 62.2932 41.6968C61.0299 42.5277 59.3578 42.962 57.2771 42.9997C57.0727 42.9997 56.9148 42.9242 56.8033 42.7731C56.7104 42.6598 56.664 42.5371 56.664 42.4049C56.664 42.3483 56.6733 42.3011 56.6918 42.2633L57.3328 39.2894C57.3514 39.1005 57.435 38.94 57.5836 38.8079C57.7322 38.6757 57.918 38.5907 58.1409 38.553C59.1813 38.383 60.0731 37.5522 60.8162 36.0605C61.5593 34.5499 62.2282 32.4068 62.8227 29.6311L64.021 23.8814C64.0581 23.6737 64.1603 23.5038 64.3275 23.3716C64.4947 23.2394 64.6712 23.1733 64.857 23.1733H78.4842C78.6699 23.1733 78.8279 23.2394 78.9579 23.3716C79.0508 23.466 79.0972 23.5888 79.0972 23.7398C79.0972 23.7776 79.088 23.8248 79.0694 23.8814L75.1958 42.2916C75.1586 42.4993 75.0565 42.6693 74.8893 42.8015C74.7221 42.9336 74.5456 42.9997 74.3598 42.9997H70.737Z" fill="#3378C4"/>
<path d="M79.65 42.9997C79.4457 42.9997 79.2877 42.9336 79.1763 42.8015C79.0834 42.6504 79.0555 42.471 79.0927 42.2633L82.9384 23.8814C82.9755 23.6737 83.0777 23.5038 83.2449 23.3716C83.4121 23.2394 83.5979 23.1733 83.8023 23.1733H87.3972C87.6015 23.1733 87.7594 23.2394 87.8709 23.3716C87.9452 23.4849 87.9824 23.5982 87.9824 23.7115C87.9824 23.7681 87.9731 23.8248 87.9545 23.8814L85.5579 35.3807L95.9246 23.7115C96.2218 23.3527 96.5655 23.1733 96.9557 23.1733H100.188C100.374 23.1733 100.532 23.2394 100.662 23.3716C100.755 23.466 100.801 23.5888 100.801 23.7398C100.801 23.7776 100.792 23.8248 100.774 23.8814L96.9 42.2916C96.8628 42.4993 96.7606 42.6693 96.5934 42.8015C96.4262 42.9336 96.2497 42.9997 96.0639 42.9997H92.469C92.2647 42.9997 92.1068 42.9336 91.9953 42.8015C91.8838 42.6693 91.8467 42.4993 91.8838 42.2916L94.2247 31.2172L83.9137 42.4616C83.6351 42.8203 83.3006 42.9997 82.9105 42.9997H79.65Z" fill="#3378C4"/>
<path d="M101.368 42.9997C101.163 42.9997 101.005 42.9336 100.894 42.8015C100.801 42.6693 100.773 42.4993 100.81 42.2916L104.656 23.8814C104.693 23.6737 104.795 23.5038 104.963 23.3716C105.13 23.2394 105.306 23.1733 105.492 23.1733H109.087C109.291 23.1733 109.449 23.2394 109.561 23.3716C109.654 23.466 109.7 23.5888 109.7 23.7398C109.7 23.7776 109.691 23.8248 109.672 23.8814L108.251 30.7074H115.106L116.528 23.8814C116.565 23.6737 116.667 23.5038 116.834 23.3716C117.001 23.2394 117.178 23.1733 117.364 23.1733H120.958C121.163 23.1733 121.321 23.2394 121.432 23.3716C121.525 23.466 121.572 23.5888 121.572 23.7398C121.572 23.7776 121.562 23.8248 121.544 23.8814L117.67 42.2916C117.633 42.4993 117.531 42.6693 117.364 42.8015C117.215 42.9336 117.038 42.9997 116.834 42.9997H113.239C113.035 42.9997 112.877 42.9336 112.765 42.8015C112.673 42.6504 112.645 42.4805 112.682 42.2916L114.159 35.2391H107.303L105.826 42.2916C105.789 42.4993 105.687 42.6693 105.52 42.8015C105.353 42.9336 105.167 42.9997 104.963 42.9997H101.368Z" fill="#3378C4"/>
<path d="M122.104 42.9997C121.9 42.9997 121.742 42.9336 121.631 42.8015C121.538 42.6504 121.51 42.471 121.547 42.2633L125.393 23.8814C125.43 23.6737 125.532 23.5038 125.699 23.3716C125.866 23.2394 126.052 23.1733 126.257 23.1733H129.851C130.056 23.1733 130.214 23.2394 130.325 23.3716C130.399 23.4849 130.437 23.5982 130.437 23.7115C130.437 23.7681 130.427 23.8248 130.409 23.8814L128.012 35.3807L138.379 23.7115C138.676 23.3527 139.02 23.1733 139.41 23.1733H142.643C142.828 23.1733 142.986 23.2394 143.116 23.3716C143.209 23.466 143.256 23.5888 143.256 23.7398C143.256 23.7776 143.246 23.8248 143.228 23.8814L139.354 42.2916C139.317 42.4993 139.215 42.6693 139.048 42.8015C138.88 42.9336 138.704 42.9997 138.518 42.9997H134.923C134.719 42.9997 134.561 42.9336 134.45 42.8015C134.338 42.6693 134.301 42.4993 134.338 42.2916L136.679 31.2172L126.368 42.4616C126.089 42.8203 125.755 42.9997 125.365 42.9997H122.104Z" fill="#3378C4"/>
<path d="M143.822 42.9997C143.618 42.9997 143.46 42.9336 143.348 42.8015C143.255 42.6693 143.227 42.4993 143.265 42.2916L147.11 23.8814C147.147 23.6737 147.25 23.5038 147.417 23.3716C147.584 23.2394 147.761 23.1733 147.946 23.1733H151.541C151.746 23.1733 151.903 23.2394 152.015 23.3716C152.108 23.466 152.154 23.5888 152.154 23.7398C152.154 23.7776 152.145 23.8248 152.126 23.8814L150.705 30.7074H157.561L158.982 23.8814C159.019 23.6737 159.121 23.5038 159.288 23.3716C159.456 23.2394 159.632 23.1733 159.818 23.1733H163.413C163.617 23.1733 163.775 23.2394 163.886 23.3716C163.979 23.466 164.026 23.5888 164.026 23.7398C164.026 23.7776 164.017 23.8248 163.998 23.8814L160.124 42.2916C160.087 42.4993 159.985 42.6693 159.818 42.8015C159.669 42.9336 159.493 42.9997 159.288 42.9997H155.693C155.489 42.9997 155.331 42.9336 155.22 42.8015C155.127 42.6504 155.099 42.4805 155.136 42.2916L156.613 35.2391H149.758L148.281 42.2916C148.244 42.4993 148.141 42.6693 147.974 42.8015C147.807 42.9336 147.621 42.9997 147.417 42.9997H143.822Z" fill="#3378C4"/>
<path d="M164.252 42.9997C164.066 42.9997 163.908 42.9336 163.778 42.8015C163.667 42.6693 163.63 42.4993 163.667 42.2916L167.54 23.8814C167.578 23.6737 167.68 23.5038 167.847 23.3716C168.014 23.2394 168.191 23.1733 168.376 23.1733H180.387C180.573 23.1733 180.731 23.2394 180.861 23.3716C180.954 23.466 181 23.5888 181 23.7398C181 23.7776 180.991 23.8248 180.972 23.8814L180.359 26.7138C180.322 26.9215 180.22 27.1009 180.053 27.2519C179.886 27.3841 179.7 27.4502 179.496 27.4502H171.804L168.683 42.2916C168.646 42.4993 168.544 42.6693 168.376 42.8015C168.228 42.9336 168.051 42.9997 167.847 42.9997H164.252Z" fill="#3378C4"/>
<path d="M58.0319 23.1733C58.1991 23.1733 58.3291 23.23 58.422 23.3433C58.4963 23.4188 58.5335 23.5132 58.5335 23.6265C58.5335 23.6643 58.5242 23.7115 58.5056 23.7681C58.487 23.8437 58.422 23.957 58.3105 24.108L51.3437 32.7183L55.0779 42.0367C55.0965 42.0745 55.1058 42.1217 55.1058 42.1783C55.1058 42.235 55.0965 42.2916 55.0779 42.3483C55.0593 42.5371 54.9757 42.6976 54.8271 42.8298C54.6785 42.9431 54.5113 42.9997 54.3255 42.9997H50.4241C50.164 42.9997 49.9689 42.9525 49.8388 42.8581C49.7274 42.7448 49.6345 42.6126 49.5602 42.4616L46.7456 35.2391H44.6276L43.1507 42.2916C43.1135 42.4993 43.0113 42.6693 42.8441 42.8015C42.6955 42.9336 42.519 42.9997 42.3146 42.9997H38.7197C38.5154 42.9997 38.3575 42.9336 38.246 42.8015C38.1531 42.6693 38.1159 42.4993 38.1345 42.2916L42.0081 23.8814C42.0453 23.6737 42.1474 23.5038 42.3146 23.3716C42.4818 23.2394 42.6583 23.1733 42.8441 23.1733H46.439C46.6434 23.1733 46.8013 23.2394 46.9128 23.3716C47.0057 23.466 47.0521 23.5888 47.0521 23.7398C47.0521 23.7776 47.0428 23.8248 47.0242 23.8814L45.5751 30.7074L47.2472 30.7357L52.7928 23.7115C53.1086 23.3527 53.4895 23.1733 53.9354 23.1733H58.0319Z" stroke="#EDF5FD" stroke-width="2" mask="url(#path-6-outside-1)"/>
<path d="M70.737 42.9997C70.5327 42.9997 70.3747 42.9336 70.2633 42.8015C70.1704 42.6504 70.1425 42.4805 70.1797 42.2916L73.2451 27.7051H68.0617L67.5323 30.2825C66.8634 33.4736 66.1389 35.9661 65.3586 37.7599C64.5783 39.5348 63.5565 40.8471 62.2932 41.6968C61.0299 42.5277 59.3578 42.962 57.2771 42.9997C57.0727 42.9997 56.9148 42.9242 56.8033 42.7731C56.7104 42.6598 56.664 42.5371 56.664 42.4049C56.664 42.3483 56.6733 42.3011 56.6918 42.2633L57.3328 39.2894C57.3514 39.1005 57.435 38.94 57.5836 38.8079C57.7322 38.6757 57.918 38.5907 58.1409 38.553C59.1813 38.383 60.0731 37.5522 60.8162 36.0605C61.5593 34.5499 62.2282 32.4068 62.8227 29.6311L64.021 23.8814C64.0581 23.6737 64.1603 23.5038 64.3275 23.3716C64.4947 23.2394 64.6712 23.1733 64.857 23.1733H78.4842C78.6699 23.1733 78.8279 23.2394 78.9579 23.3716C79.0508 23.466 79.0972 23.5888 79.0972 23.7398C79.0972 23.7776 79.088 23.8248 79.0694 23.8814L75.1958 42.2916C75.1586 42.4993 75.0565 42.6693 74.8893 42.8015C74.7221 42.9336 74.5456 42.9997 74.3598 42.9997H70.737Z" stroke="#EDF5FD" stroke-width="2" mask="url(#path-6-outside-1)"/>
<path d="M79.65 42.9997C79.4457 42.9997 79.2877 42.9336 79.1763 42.8015C79.0834 42.6504 79.0555 42.471 79.0927 42.2633L82.9384 23.8814C82.9755 23.6737 83.0777 23.5038 83.2449 23.3716C83.4121 23.2394 83.5979 23.1733 83.8023 23.1733H87.3972C87.6015 23.1733 87.7594 23.2394 87.8709 23.3716C87.9452 23.4849 87.9824 23.5982 87.9824 23.7115C87.9824 23.7681 87.9731 23.8248 87.9545 23.8814L85.5579 35.3807L95.9246 23.7115C96.2218 23.3527 96.5655 23.1733 96.9557 23.1733H100.188C100.374 23.1733 100.532 23.2394 100.662 23.3716C100.755 23.466 100.801 23.5888 100.801 23.7398C100.801 23.7776 100.792 23.8248 100.774 23.8814L96.9 42.2916C96.8628 42.4993 96.7606 42.6693 96.5934 42.8015C96.4262 42.9336 96.2497 42.9997 96.0639 42.9997H92.469C92.2647 42.9997 92.1068 42.9336 91.9953 42.8015C91.8838 42.6693 91.8467 42.4993 91.8838 42.2916L94.2247 31.2172L83.9137 42.4616C83.6351 42.8203 83.3006 42.9997 82.9105 42.9997H79.65Z" stroke="#EDF5FD" stroke-width="2" mask="url(#path-6-outside-1)"/>
<path d="M101.368 42.9997C101.163 42.9997 101.005 42.9336 100.894 42.8015C100.801 42.6693 100.773 42.4993 100.81 42.2916L104.656 23.8814C104.693 23.6737 104.795 23.5038 104.963 23.3716C105.13 23.2394 105.306 23.1733 105.492 23.1733H109.087C109.291 23.1733 109.449 23.2394 109.561 23.3716C109.654 23.466 109.7 23.5888 109.7 23.7398C109.7 23.7776 109.691 23.8248 109.672 23.8814L108.251 30.7074H115.106L116.528 23.8814C116.565 23.6737 116.667 23.5038 116.834 23.3716C117.001 23.2394 117.178 23.1733 117.364 23.1733H120.958C121.163 23.1733 121.321 23.2394 121.432 23.3716C121.525 23.466 121.572 23.5888 121.572 23.7398C121.572 23.7776 121.562 23.8248 121.544 23.8814L117.67 42.2916C117.633 42.4993 117.531 42.6693 117.364 42.8015C117.215 42.9336 117.038 42.9997 116.834 42.9997H113.239C113.035 42.9997 112.877 42.9336 112.765 42.8015C112.673 42.6504 112.645 42.4805 112.682 42.2916L114.159 35.2391H107.303L105.826 42.2916C105.789 42.4993 105.687 42.6693 105.52 42.8015C105.353 42.9336 105.167 42.9997 104.963 42.9997H101.368Z" stroke="#EDF5FD" stroke-width="2" mask="url(#path-6-outside-1)"/>
<path d="M122.104 42.9997C121.9 42.9997 121.742 42.9336 121.631 42.8015C121.538 42.6504 121.51 42.471 121.547 42.2633L125.393 23.8814C125.43 23.6737 125.532 23.5038 125.699 23.3716C125.866 23.2394 126.052 23.1733 126.257 23.1733H129.851C130.056 23.1733 130.214 23.2394 130.325 23.3716C130.399 23.4849 130.437 23.5982 130.437 23.7115C130.437 23.7681 130.427 23.8248 130.409 23.8814L128.012 35.3807L138.379 23.7115C138.676 23.3527 139.02 23.1733 139.41 23.1733H142.643C142.828 23.1733 142.986 23.2394 143.116 23.3716C143.209 23.466 143.256 23.5888 143.256 23.7398C143.256 23.7776 143.246 23.8248 143.228 23.8814L139.354 42.2916C139.317 42.4993 139.215 42.6693 139.048 42.8015C138.88 42.9336 138.704 42.9997 138.518 42.9997H134.923C134.719 42.9997 134.561 42.9336 134.45 42.8015C134.338 42.6693 134.301 42.4993 134.338 42.2916L136.679 31.2172L126.368 42.4616C126.089 42.8203 125.755 42.9997 125.365 42.9997H122.104Z" stroke="#EDF5FD" stroke-width="2" mask="url(#path-6-outside-1)"/>
<path d="M143.822 42.9997C143.618 42.9997 143.46 42.9336 143.348 42.8015C143.255 42.6693 143.227 42.4993 143.265 42.2916L147.11 23.8814C147.147 23.6737 147.25 23.5038 147.417 23.3716C147.584 23.2394 147.761 23.1733 147.946 23.1733H151.541C151.746 23.1733 151.903 23.2394 152.015 23.3716C152.108 23.466 152.154 23.5888 152.154 23.7398C152.154 23.7776 152.145 23.8248 152.126 23.8814L150.705 30.7074H157.561L158.982 23.8814C159.019 23.6737 159.121 23.5038 159.288 23.3716C159.456 23.2394 159.632 23.1733 159.818 23.1733H163.413C163.617 23.1733 163.775 23.2394 163.886 23.3716C163.979 23.466 164.026 23.5888 164.026 23.7398C164.026 23.7776 164.017 23.8248 163.998 23.8814L160.124 42.2916C160.087 42.4993 159.985 42.6693 159.818 42.8015C159.669 42.9336 159.493 42.9997 159.288 42.9997H155.693C155.489 42.9997 155.331 42.9336 155.22 42.8015C155.127 42.6504 155.099 42.4805 155.136 42.2916L156.613 35.2391H149.758L148.281 42.2916C148.244 42.4993 148.141 42.6693 147.974 42.8015C147.807 42.9336 147.621 42.9997 147.417 42.9997H143.822Z" stroke="#EDF5FD" stroke-width="2" mask="url(#path-6-outside-1)"/>
<path d="M164.252 42.9997C164.066 42.9997 163.908 42.9336 163.778 42.8015C163.667 42.6693 163.63 42.4993 163.667 42.2916L167.54 23.8814C167.578 23.6737 167.68 23.5038 167.847 23.3716C168.014 23.2394 168.191 23.1733 168.376 23.1733H180.387C180.573 23.1733 180.731 23.2394 180.861 23.3716C180.954 23.466 181 23.5888 181 23.7398C181 23.7776 180.991 23.8248 180.972 23.8814L180.359 26.7138C180.322 26.9215 180.22 27.1009 180.053 27.2519C179.886 27.3841 179.7 27.4502 179.496 27.4502H171.804L168.683 42.2916C168.646 42.4993 168.544 42.6693 168.376 42.8015C168.228 42.9336 168.051 42.9997 167.847 42.9997H164.252Z" stroke="#EDF5FD" stroke-width="2" mask="url(#path-6-outside-1)"/>
<defs>
<linearGradient id="paint0_linear" x1="29.7275" y1="28.1887" x2="22.7684" y2="32.1002" gradientUnits="userSpaceOnUse">
<stop stop-color="white"/>
<stop offset="1" stop-color="#3378C4"/>
</linearGradient>
<linearGradient id="paint1_linear" x1="29.7275" y1="28.1887" x2="22.7684" y2="32.1002" gradientUnits="userSpaceOnUse">
<stop stop-color="white"/>
<stop offset="1" stop-color="#3378C4"/>
</linearGradient>
<linearGradient id="paint2_linear" x1="29.7275" y1="28.1887" x2="22.7684" y2="32.1002" gradientUnits="userSpaceOnUse">
<stop stop-color="white"/>
<stop offset="1" stop-color="#3378C4"/>
</linearGradient>
<linearGradient id="paint3_linear" x1="12.6435" y1="21.1045" x2="22.9063" y2="16.0681" gradientUnits="userSpaceOnUse">
<stop stop-color="#003978"/>
<stop offset="0.0001" stop-color="#001F41"/>
<stop offset="1" stop-color="#3378C4"/>
</linearGradient>
<linearGradient id="paint4_linear" x1="12.6435" y1="21.1045" x2="22.9063" y2="16.0681" gradientUnits="userSpaceOnUse">
<stop stop-color="#003978"/>
<stop offset="0.0001" stop-color="#001F41"/>
<stop offset="1" stop-color="#3378C4"/>
</linearGradient>
</defs>
</svg>
