<svg width="180" height="46" viewBox="0 0 180 46" fill="none" xmlns="http://www.w3.org/2000/svg">
<path d="M22.1055 45.1024C24.7518 44.3357 26.5389 43.5756 28.3161 41.7365L28.3391 41.7126C29.7435 40.2594 32.731 37.1681 32.731 30.6656C32.8544 29.7089 32.5701 28.4806 32.0722 27.1348C31.8421 26.5127 31.5663 25.8654 31.2641 25.2083C35.0622 33.4671 24.3339 34.7023 21.2614 32.2291C8.46723 21.9304 18.4002 6.52844 24.9659 0.114807C-2.60458 24.2473 6.48169 45.851 22.1055 45.1024Z" fill="url(#paint0_linear)"/>
<path d="M24.9659 0.114807C22.2818 1.72867 16.1814 5.52599 14.9583 6.54528C13.4294 7.81938 0.433501 17.2478 0.229644 27.1348C-0.381929 36.7161 6.80402 43.8511 14.3467 45.329C16.4475 45.6118 18.9594 46.014 22.1055 45.1024C6.48169 45.851 -2.60458 24.2473 24.9659 0.114807Z" fill="url(#paint1_linear)"/>
<path fill-rule="evenodd" clip-rule="evenodd" d="M21.2614 32.2291C8.46723 21.9304 18.4002 6.52844 24.9659 0.114807C22.8895 6.61489 24.983 11.5727 26.6999 15.6388C26.9716 16.2823 27.2339 16.9035 27.4687 17.5049C27.8956 18.5981 28.6196 19.9875 29.3973 21.4799C30.0275 22.6894 30.693 23.9665 31.2641 25.2083C35.0622 33.4671 24.3339 34.7023 21.2614 32.2291Z" fill="url(#paint2_linear)"/>
<path d="M21.2614 32.2291C24.4901 34.8281 31.8042 35.7289 32.731 30.6656C32.8544 29.7089 32.5701 28.4806 32.0722 27.1348C31.8421 26.5127 31.5663 25.8654 31.2641 25.2083C35.0622 33.4671 24.3339 34.7023 21.2614 32.2291Z" fill="url(#paint3_linear)"/>
<path d="M24.9659 0.114807C22.2818 1.72867 16.1814 5.52599 14.9583 6.54528C13.4294 7.81938 0.433501 17.2478 0.229644 27.1348C-0.381929 36.7161 6.80402 43.8511 14.3467 45.329C16.4475 45.6118 18.9594 46.014 22.1055 45.1024C6.48169 45.851 -2.60458 24.2473 24.9659 0.114807Z" fill="url(#paint4_linear)"/>
<path fill-rule="evenodd" clip-rule="evenodd" d="M21.2614 32.2291C8.46723 21.9304 18.4002 6.52844 24.9659 0.114807C22.8895 6.61489 24.983 11.5727 26.6999 15.6388C26.9716 16.2823 27.2339 16.9035 27.4687 17.5049C27.8956 18.5981 28.6196 19.9875 29.3973 21.4799C30.0275 22.6894 30.693 23.9665 31.2641 25.2083C35.0622 33.4671 24.3339 34.7023 21.2614 32.2291Z" fill="url(#paint5_linear)"/>
<path d="M24.9659 0.114807C22.2818 1.72867 16.1814 5.52599 14.9583 6.54528C13.4294 7.81938 0.433501 17.2478 0.229644 27.1348C-0.381929 36.7161 6.80402 43.8511 14.3467 45.329C16.4475 45.6118 18.9594 46.014 22.1055 45.1024C6.48169 45.851 -2.60458 24.2473 24.9659 0.114807Z" fill="#3378C4"/>
<path d="M41.5164 20.2314C41.3112 20.2314 41.1527 20.1661 41.0408 20.0355C40.9475 19.8863 40.9195 19.7184 40.9568 19.5319L44.8178 1.34612C44.8551 1.14095 44.9577 0.973079 45.1256 0.842515C45.2935 0.71195 45.4706 0.646667 45.6572 0.646667H53.0993C55.1697 0.646667 56.8298 1.07567 58.0795 1.93366C59.3478 2.79166 59.982 4.03202 59.982 5.65475C59.982 6.12105 59.926 6.60601 59.8141 7.10962C59.3478 9.2546 58.4059 10.84 56.9883 11.8659C55.5894 12.8918 53.6682 13.4047 51.2248 13.4047H47.4478L46.1608 19.5319C46.1235 19.7371 46.0209 19.9049 45.853 20.0355C45.6851 20.1661 45.508 20.2314 45.3214 20.2314H41.5164ZM51.4207 9.54371C52.204 9.54371 52.8849 9.32921 53.4631 8.90021C54.0599 8.47122 54.4516 7.8557 54.6381 7.05366C54.6941 6.73657 54.7221 6.45679 54.7221 6.21431C54.7221 5.6734 54.5635 5.26306 54.2465 4.98328C53.9294 4.68484 53.3885 4.53563 52.6237 4.53563H49.2663L48.2032 9.54371H51.4207Z" fill="#3E4657"/>
<path d="M79.42 0.646667C79.5879 0.646667 79.7091 0.693298 79.7837 0.786558C79.877 0.879818 79.9236 0.991731 79.9236 1.1223C79.9236 1.30882 79.849 1.51399 79.6998 1.73782L71.4182 14.5238C70.4483 16.0346 69.581 17.1817 68.8163 17.9651C68.0702 18.7485 67.2402 19.3267 66.3262 19.6998C65.4123 20.0542 64.2745 20.2314 62.9129 20.2314H61.4301C61.2435 20.2314 61.085 20.1661 60.9544 20.0355C60.8425 19.9049 60.8052 19.7371 60.8425 19.5319L61.486 16.5662C61.5233 16.361 61.6259 16.1932 61.7938 16.0626C61.9616 15.9321 62.1388 15.8668 62.3254 15.8668H63.4165C63.9574 15.8668 64.433 15.7549 64.8434 15.531C65.2724 15.2886 65.7107 14.9062 66.1584 14.3839L61.9896 1.51399C61.971 1.47669 61.9616 1.39275 61.9616 1.26219C61.9803 1.09432 62.0642 0.954427 62.2134 0.842515C62.3627 0.71195 62.5399 0.646667 62.745 0.646667H66.3542C66.5407 0.646667 66.6806 0.693298 66.7739 0.786558C66.8858 0.879818 66.9697 1.02904 67.0257 1.23421L69.4878 9.37584L74.8036 1.23421C75.0274 0.842515 75.3445 0.646667 75.7549 0.646667H79.42Z" fill="#3E4657"/>
<path d="M78.5935 20.2314C78.3884 20.2314 78.2298 20.1661 78.1179 20.0355C78.006 19.9049 77.9687 19.7371 78.006 19.5319L81.867 1.34612C81.9043 1.14095 82.0069 0.973079 82.1747 0.842515C82.3426 0.71195 82.5291 0.646667 82.7343 0.646667H85.7559C86.2036 0.646667 86.4927 0.851841 86.6233 1.26219L89.6729 10.0753L96.4716 1.26219C96.5648 1.11297 96.6954 0.973079 96.8633 0.842515C97.0498 0.71195 97.2736 0.646667 97.5347 0.646667H100.584C100.79 0.646667 100.948 0.71195 101.06 0.842515C101.135 0.954427 101.172 1.06634 101.172 1.17825C101.172 1.23421 101.163 1.29016 101.144 1.34612L97.2829 19.5319C97.2456 19.7371 97.143 19.9049 96.9752 20.0355C96.8073 20.1661 96.6301 20.2314 96.4436 20.2314H93.0582C92.8531 20.2314 92.6945 20.1661 92.5826 20.0355C92.4893 19.8863 92.4614 19.7184 92.4987 19.5319L94.681 9.20797L90.4003 14.8875C90.2138 15.0927 90.0366 15.2512 89.8687 15.3632C89.7009 15.4751 89.505 15.531 89.2812 15.531H87.8263C87.4346 15.531 87.1642 15.3165 87.015 14.8875L85.0285 8.95617L82.7903 19.5319C82.753 19.7371 82.6504 19.9049 82.4825 20.0355C82.3146 20.1661 82.1374 20.2314 81.9509 20.2314H78.5935Z" fill="#3E4657"/>
<path d="M56.1319 23.5378C56.2997 23.5378 56.4303 23.5938 56.5236 23.7057C56.5982 23.7803 56.6355 23.8736 56.6355 23.9855C56.6355 24.0228 56.6261 24.0694 56.6075 24.1254C56.5888 24.2 56.5236 24.3119 56.4116 24.4611L49.4171 32.9665L53.1662 42.1713C53.1848 42.2086 53.1942 42.2552 53.1942 42.3112C53.1942 42.3671 53.1848 42.4231 53.1662 42.479C53.1475 42.6656 53.0636 42.8241 52.9144 42.9547C52.7652 43.0666 52.5973 43.1225 52.4108 43.1225H48.4938C48.2327 43.1225 48.0369 43.0759 47.9063 42.9826C47.7944 42.8707 47.7011 42.7402 47.6265 42.5909L44.8007 35.4565H42.6744L41.1915 42.4231C41.1542 42.6283 41.0517 42.7961 40.8838 42.9267C40.7346 43.0572 40.5574 43.1225 40.3522 43.1225H36.743C36.5378 43.1225 36.3793 43.0572 36.2674 42.9267C36.1741 42.7961 36.1368 42.6283 36.1555 42.4231L40.0444 24.2373C40.0817 24.0321 40.1843 23.8643 40.3522 23.7337C40.5201 23.6031 40.6973 23.5378 40.8838 23.5378H44.493C44.6981 23.5378 44.8567 23.6031 44.9686 23.7337C45.0619 23.8269 45.1085 23.9482 45.1085 24.0974C45.1085 24.1347 45.0992 24.1813 45.0805 24.2373L43.6256 30.98L45.3043 31.008L50.872 24.0694C51.1891 23.715 51.5714 23.5378 52.0191 23.5378H56.1319Z" fill="#3378C4"/>
<path d="M68.8875 43.1225C68.6823 43.1225 68.5238 43.0572 68.4119 42.9267C68.3186 42.7775 68.2906 42.6096 68.3279 42.4231L71.4055 28.0143H66.2016L65.67 30.5604C64.9985 33.7126 64.2711 36.1746 63.4877 37.9466C62.7043 39.6999 61.6785 40.9962 60.4101 41.8355C59.1418 42.6562 57.4631 43.0852 55.374 43.1225C55.1689 43.1225 55.0103 43.0479 54.8984 42.8987C54.8052 42.7868 54.7585 42.6656 54.7585 42.535C54.7585 42.479 54.7679 42.4324 54.7865 42.3951L55.43 39.4574C55.4487 39.2709 55.5326 39.1123 55.6818 38.9818C55.831 38.8512 56.0175 38.7673 56.2414 38.73C57.2859 38.5621 58.1812 37.7414 58.9273 36.2679C59.6734 34.7757 60.3448 32.6587 60.9417 29.9169L62.1448 24.2373C62.1821 24.0321 62.2846 23.8643 62.4525 23.7337C62.6204 23.6031 62.7976 23.5378 62.9841 23.5378H76.6654C76.8519 23.5378 77.0105 23.6031 77.141 23.7337C77.2343 23.8269 77.2809 23.9482 77.2809 24.0974C77.2809 24.1347 77.2716 24.1813 77.2529 24.2373L73.364 42.4231C73.3267 42.6283 73.2241 42.7961 73.0562 42.9267C72.8884 43.0572 72.7112 43.1225 72.5246 43.1225H68.8875Z" fill="#3378C4"/>
<path d="M77.8359 43.1225C77.6307 43.1225 77.4722 43.0572 77.3603 42.9267C77.267 42.7775 77.239 42.6003 77.2763 42.3951L81.1373 24.2373C81.1746 24.0321 81.2772 23.8643 81.4451 23.7337C81.6129 23.6031 81.7995 23.5378 82.0046 23.5378H85.6138C85.819 23.5378 85.9775 23.6031 86.0894 23.7337C86.164 23.8456 86.2013 23.9575 86.2013 24.0694C86.2013 24.1254 86.192 24.1813 86.1734 24.2373L83.7672 35.5964L94.1751 24.0694C94.4735 23.715 94.8186 23.5378 95.2103 23.5378H98.4558C98.6423 23.5378 98.8008 23.6031 98.9314 23.7337C99.0246 23.8269 99.0713 23.9482 99.0713 24.0974C99.0713 24.1347 99.062 24.1813 99.0433 24.2373L95.1543 42.4231C95.117 42.6283 95.0145 42.7961 94.8466 42.9267C94.6787 43.0572 94.5015 43.1225 94.315 43.1225H90.7058C90.5007 43.1225 90.3421 43.0572 90.2302 42.9267C90.1183 42.7961 90.081 42.6283 90.1183 42.4231L92.4684 31.4836L82.1165 42.5909C81.8368 42.9453 81.501 43.1225 81.1093 43.1225H77.8359Z" fill="#3378C4"/>
<path d="M99.6398 43.1225C99.4346 43.1225 99.2761 43.0572 99.1642 42.9267C99.0709 42.7961 99.0429 42.6283 99.0802 42.4231L102.941 24.2373C102.979 24.0321 103.081 23.8643 103.249 23.7337C103.417 23.6031 103.594 23.5378 103.781 23.5378H107.39C107.595 23.5378 107.753 23.6031 107.865 23.7337C107.959 23.8269 108.005 23.9482 108.005 24.0974C108.005 24.1347 107.996 24.1813 107.977 24.2373L106.55 30.98H113.433L114.86 24.2373C114.897 24.0321 115 23.8643 115.168 23.7337C115.336 23.6031 115.513 23.5378 115.699 23.5378H119.308C119.514 23.5378 119.672 23.6031 119.784 23.7337C119.877 23.8269 119.924 23.9482 119.924 24.0974C119.924 24.1347 119.915 24.1813 119.896 24.2373L116.007 42.4231C115.97 42.6283 115.867 42.7961 115.699 42.9267C115.55 43.0572 115.373 43.1225 115.168 43.1225H111.558C111.353 43.1225 111.195 43.0572 111.083 42.9267C110.99 42.7775 110.962 42.6096 110.999 42.4231L112.482 35.4565H105.599L104.116 42.4231C104.079 42.6283 103.976 42.7961 103.809 42.9267C103.641 43.0572 103.454 43.1225 103.249 43.1225H99.6398Z" fill="#3378C4"/>
<path d="M120.459 43.1225C120.254 43.1225 120.095 43.0572 119.983 42.9267C119.89 42.7775 119.862 42.6003 119.899 42.3951L123.76 24.2373C123.798 24.0321 123.9 23.8643 124.068 23.7337C124.236 23.6031 124.422 23.5378 124.628 23.5378H128.237C128.442 23.5378 128.6 23.6031 128.712 23.7337C128.787 23.8456 128.824 23.9575 128.824 24.0694C128.824 24.1254 128.815 24.1813 128.796 24.2373L126.39 35.5964L136.798 24.0694C137.096 23.715 137.442 23.5378 137.833 23.5378H141.079C141.265 23.5378 141.424 23.6031 141.554 23.7337C141.648 23.8269 141.694 23.9482 141.694 24.0974C141.694 24.1347 141.685 24.1813 141.666 24.2373L137.777 42.4231C137.74 42.6283 137.637 42.7961 137.47 42.9267C137.302 43.0572 137.124 43.1225 136.938 43.1225H133.329C133.124 43.1225 132.965 43.0572 132.853 42.9267C132.741 42.7961 132.704 42.6283 132.741 42.4231L135.091 31.4836L124.739 42.5909C124.46 42.9453 124.124 43.1225 123.732 43.1225H120.459Z" fill="#3378C4"/>
<path d="M142.263 43.1225C142.058 43.1225 141.899 43.0572 141.787 42.9267C141.694 42.7961 141.666 42.6283 141.703 42.4231L145.564 24.2373C145.601 24.0321 145.704 23.8643 145.872 23.7337C146.04 23.6031 146.217 23.5378 146.403 23.5378H150.013C150.218 23.5378 150.376 23.6031 150.488 23.7337C150.582 23.8269 150.628 23.9482 150.628 24.0974C150.628 24.1347 150.619 24.1813 150.6 24.2373L149.173 30.98H156.056L157.483 24.2373C157.52 24.0321 157.623 23.8643 157.791 23.7337C157.958 23.6031 158.136 23.5378 158.322 23.5378H161.931C162.137 23.5378 162.295 23.6031 162.407 23.7337C162.5 23.8269 162.547 23.9482 162.547 24.0974C162.547 24.1347 162.538 24.1813 162.519 24.2373L158.63 42.4231C158.593 42.6283 158.49 42.7961 158.322 42.9267C158.173 43.0572 157.996 43.1225 157.791 43.1225H154.181C153.976 43.1225 153.818 43.0572 153.706 42.9267C153.613 42.7775 153.585 42.6096 153.622 42.4231L155.105 35.4565H148.222L146.739 42.4231C146.702 42.6283 146.599 42.7961 146.431 42.9267C146.264 43.0572 146.077 43.1225 145.872 43.1225H142.263Z" fill="#3378C4"/>
<path d="M162.774 43.1225C162.587 43.1225 162.429 43.0572 162.298 42.9267C162.186 42.7961 162.149 42.6283 162.186 42.4231L166.075 24.2373C166.113 24.0321 166.215 23.8643 166.383 23.7337C166.551 23.6031 166.728 23.5378 166.915 23.5378H178.973C179.16 23.5378 179.318 23.6031 179.449 23.7337C179.542 23.8269 179.589 23.9482 179.589 24.0974C179.589 24.1347 179.579 24.1813 179.561 24.2373L178.945 27.0351C178.908 27.2403 178.805 27.4175 178.638 27.5667C178.47 27.6973 178.283 27.7625 178.078 27.7625H170.356L167.222 42.4231C167.185 42.6283 167.083 42.7961 166.915 42.9267C166.766 43.0572 166.588 43.1225 166.383 43.1225H162.774Z" fill="#3378C4"/>
<defs>
<linearGradient id="paint0_linear" x1="24.6294" y1="0.114807" x2="32.7598" y2="36.5903" gradientUnits="userSpaceOnUse">
<stop stop-color="white"/>
</linearGradient>
<linearGradient id="paint1_linear" x1="32.7598" y1="29.7016" x2="25.1959" y2="34.0226" gradientUnits="userSpaceOnUse">
<stop stop-color="white"/>
<stop offset="1" stop-color="#3378C4"/>
</linearGradient>
<linearGradient id="paint2_linear" x1="32.7598" y1="29.7016" x2="25.1959" y2="34.0226" gradientUnits="userSpaceOnUse">
<stop stop-color="white"/>
<stop offset="1" stop-color="#3378C4"/>
</linearGradient>
<linearGradient id="paint3_linear" x1="32.7598" y1="29.7016" x2="25.1959" y2="34.0226" gradientUnits="userSpaceOnUse">
<stop stop-color="white"/>
<stop offset="1" stop-color="#3378C4"/>
</linearGradient>
<linearGradient id="paint4_linear" x1="14.0442" y1="22.0658" x2="25.2156" y2="16.4939" gradientUnits="userSpaceOnUse">
<stop stop-color="#003978"/>
<stop offset="0.0001" stop-color="#001F41"/>
<stop offset="1" stop-color="#3378C4"/>
</linearGradient>
<linearGradient id="paint5_linear" x1="14.0442" y1="22.0658" x2="25.2156" y2="16.4939" gradientUnits="userSpaceOnUse">
<stop stop-color="#003978"/>
<stop offset="0.0001" stop-color="#001F41"/>
<stop offset="1" stop-color="#3378C4"/>
</linearGradient>
</defs>
</svg>
