<svg width="25" height="25" viewBox="0 0 25 25" fill="none" xmlns="http://www.w3.org/2000/svg">
<g clip-path="url(#clip0)">
<path d="M13.8811 12.501L24.714 1.66812C25.0954 1.28673 25.0954 0.66837 24.714 0.287023C24.3326 -0.0943235 23.7142 -0.0943724 23.3329 0.287023L12.5 11.1199L1.66715 0.287023C1.28575 -0.0943724 0.667394 -0.0943724 0.286047 0.287023C-0.0953001 0.668419 -0.0953489 1.28678 0.286047 1.66812L11.1189 12.501L0.286047 23.3339C-0.0953489 23.7152 -0.0953489 24.3336 0.286047 24.715C0.47672 24.9056 0.726671 25.0009 0.976622 25.0009C1.22657 25.0009 1.47647 24.9056 1.6672 24.715L12.5 13.8821L23.3328 24.715C23.5235 24.9056 23.7735 25.0009 24.0234 25.0009C24.2734 25.0009 24.5233 24.9056 24.714 24.715C25.0954 24.3336 25.0954 23.7152 24.714 23.3339L13.8811 12.501Z" fill="#F44336"/>
</g>
<defs>
<clipPath id="clip0">
<rect width="25" height="25" fill="white"/>
</clipPath>
</defs>
</svg>
