<svg width="12" height="19" viewBox="0 0 12 19" fill="none" xmlns="http://www.w3.org/2000/svg">
<path d="M6.00727 9.75895C8.69712 9.75895 10.8777 7.57838 10.8777 4.88849C10.8777 2.1986 8.69716 0.0180664 6.00727 0.0180664C3.31737 0.0180664 1.13684 2.19863 1.13684 4.88853C1.14014 7.57701 3.31878 9.75565 6.00727 9.75895ZM6.00727 2.26597C7.45565 2.26597 8.62983 3.44011 8.62983 4.88853C8.62983 6.33695 7.45569 7.51109 6.00727 7.51109C4.55885 7.51109 3.38471 6.33695 3.38471 4.88853C3.38471 3.44011 4.55888 2.26597 6.00727 2.26597Z" fill="#E5E5E5"/>
<path d="M10.7781 12.0667C11.3074 11.7181 11.6263 11.127 11.6271 10.4932C11.6344 9.96718 11.3376 9.48417 10.865 9.25309C10.3795 9.01056 9.79825 9.06518 9.36641 9.39397C7.36497 10.8531 4.65038 10.8531 2.64894 9.39397C2.21643 9.0669 1.63623 9.01235 1.15033 9.25309C0.677959 9.48413 0.38099 9.96662 0.387558 10.4924C0.388682 11.1261 0.707497 11.717 1.23653 12.0659C1.91525 12.5173 2.65439 12.8705 3.43199 13.115C3.56387 13.1559 3.69998 13.1939 3.84037 13.2289L1.57599 15.4431C0.981987 16.0194 0.967622 16.9681 1.54396 17.5622C2.1203 18.1562 3.06902 18.1705 3.66306 17.5942C3.67543 17.5822 3.68758 17.57 3.69952 17.5576L6.00738 15.1688L8.31973 17.5621C8.89558 18.1565 9.84433 18.1716 10.4388 17.5958C11.0333 17.0199 11.0484 16.0712 10.4725 15.4767C10.4605 15.4643 10.4482 15.4521 10.4357 15.44L8.17509 13.2281C8.31544 13.1921 8.45207 13.1539 8.58494 13.1135C9.3617 12.8699 10.1001 12.5175 10.7781 12.0667Z" fill="#E5E5E5"/>
</svg>
