<svg width="17" height="17" viewBox="0 0 17 17" fill="none" xmlns="http://www.w3.org/2000/svg">
<path d="M11.2429 12.2049L12.6429 10.8049C12.8315 10.6187 13.07 10.4912 13.3296 10.4379C13.5893 10.3847 13.8587 10.408 14.1054 10.5049L15.8116 11.1862C16.0609 11.2873 16.2746 11.46 16.4259 11.6825C16.5772 11.9049 16.6592 12.1672 16.6616 12.4362V15.5612C16.6602 15.7441 16.6217 15.9249 16.5486 16.0927C16.4754 16.2604 16.369 16.4116 16.2359 16.5371C16.1028 16.6627 15.9456 16.76 15.7739 16.8232C15.6021 16.8864 15.4194 16.9142 15.2366 16.9049C3.28039 16.1612 0.867894 6.03615 0.411644 2.16115C0.390464 1.97086 0.409815 1.77824 0.468424 1.59597C0.527032 1.4137 0.62357 1.2459 0.751686 1.10361C0.879801 0.961327 1.03659 0.84778 1.21174 0.770442C1.38689 0.693104 1.57643 0.653727 1.76789 0.654902H4.78664C5.05602 0.6557 5.31901 0.737069 5.54177 0.888546C5.76452 1.04002 5.93687 1.25468 6.03664 1.5049L6.71789 3.21115C6.81805 3.45682 6.84361 3.72655 6.79136 3.98666C6.73912 4.24677 6.61139 4.48571 6.42414 4.67365L5.02414 6.07365C5.02414 6.07365 5.83039 11.5299 11.2429 12.2049Z" fill="white"/>
</svg>
