<svg width="19" height="19" viewBox="0 0 19 19" fill="none" xmlns="http://www.w3.org/2000/svg">
<path d="M18.3403 6.94151C18.2838 6.77491 18.1797 6.62852 18.0408 6.52042C17.902 6.41231 17.7346 6.34722 17.5592 6.33319L12.429 5.92554L10.209 1.01129C10.1383 0.853015 10.0233 0.718581 9.87789 0.624216C9.73247 0.529851 9.56285 0.479587 9.3895 0.479492C9.21615 0.479397 9.04648 0.529474 8.90096 0.623679C8.75544 0.717885 8.6403 0.852192 8.56942 1.01039L6.34941 5.92554L1.21919 6.33319C1.04683 6.34684 0.882044 6.40987 0.744557 6.51472C0.607071 6.61958 0.502703 6.76182 0.443941 6.92444C0.385179 7.08705 0.374511 7.26315 0.413212 7.43167C0.451913 7.60019 0.538346 7.754 0.662169 7.87468L4.45337 11.5705L3.11254 17.3765C3.07183 17.5523 3.08488 17.7362 3.15 17.9044C3.21511 18.0727 3.32929 18.2175 3.47772 18.32C3.62614 18.4225 3.80196 18.4781 3.98235 18.4795C4.16275 18.4808 4.33939 18.428 4.48936 18.3277L9.38921 15.0611L14.2891 18.3277C14.4423 18.4295 14.6231 18.4819 14.8071 18.4778C14.991 18.4738 15.1693 18.4135 15.318 18.3051C15.4667 18.1967 15.5786 18.0454 15.6387 17.8715C15.6988 17.6976 15.7042 17.5095 15.6542 17.3324L14.0083 11.5732L18.0902 7.89988C18.3574 7.65871 18.4555 7.28256 18.3403 6.94151Z" fill="#FFCC00"/>
</svg>
