<svg width="17" height="17" viewBox="0 0 17 17" fill="none" xmlns="http://www.w3.org/2000/svg">
<g clip-path="url(#clip0)">
<path d="M15.7321 8.03124C15.4732 8.03124 15.2634 8.24111 15.2634 8.49998C15.2634 12.3942 12.0951 15.5624 8.2009 15.5624C4.30665 15.5624 1.13845 12.3942 1.13845 8.49998C1.13845 4.60572 4.30665 1.43752 8.2009 1.43752C9.38836 1.43752 10.5435 1.73237 11.5746 2.29418L10.9886 2.8802C10.8545 3.01426 10.8144 3.21586 10.8869 3.39104C10.9595 3.5662 11.1304 3.68042 11.32 3.68042H13.5629C13.8218 3.68042 14.0316 3.47054 14.0316 3.21167V0.968777C14.0316 0.779184 13.9175 0.608279 13.7423 0.535717C13.5671 0.463123 13.3655 0.503248 13.2314 0.637341L12.2622 1.60662C11.0344 0.881715 9.63846 0.500061 8.20087 0.500061C6.06401 0.500061 4.05503 1.33221 2.54404 2.84317C1.03305 4.35419 0.200928 6.36315 0.200928 8.50001C0.200928 10.6369 1.03305 12.6458 2.54404 14.1568C4.05506 15.6678 6.06401 16.5 8.20087 16.5C10.3377 16.5 12.3467 15.6678 13.8577 14.1568C15.3687 12.6458 16.2008 10.6369 16.2008 8.50001C16.2008 8.24111 15.991 8.03124 15.7321 8.03124Z" fill="black"/>
<path d="M11.2134 8.03121H8.66968V5.48748C8.66968 5.22861 8.4598 5.01874 8.20093 5.01874C7.94205 5.01874 7.73218 5.22861 7.73218 5.48748V8.49995C7.73218 8.75883 7.94205 8.9687 8.20093 8.9687H11.2134C11.4723 8.9687 11.6821 8.75883 11.6821 8.49995C11.6821 8.24108 11.4723 8.03121 11.2134 8.03121Z" fill="black"/>
</g>
<defs>
<clipPath id="clip0">
<rect width="16" height="16" fill="white" transform="translate(0.200928 0.5)"/>
</clipPath>
</defs>
</svg>
