<svg width="19" height="16" viewBox="0 0 19 16" fill="none" xmlns="http://www.w3.org/2000/svg">
<path d="M18.2153 2.43694C17.546 2.73057 16.8327 2.92519 16.0891 3.01969C16.8541 2.56294 17.438 1.84519 17.7125 0.980066C16.9992 1.40532 16.2117 1.70569 15.3725 1.87332C14.6952 1.15219 13.73 0.705566 12.677 0.705566C10.634 0.705566 8.98921 2.36382 8.98921 4.39669C8.98921 4.68919 9.01396 4.97044 9.07471 5.23819C6.00683 5.08857 3.29221 3.61819 1.46858 1.37832C1.15021 1.93069 0.963457 2.56294 0.963457 3.24357C0.963457 4.52157 1.62158 5.65444 2.60258 6.31032C2.00971 6.29907 1.42808 6.12694 0.935332 5.85582C0.935332 5.86707 0.935332 5.88169 0.935332 5.89632C0.935332 7.68957 2.21446 9.17907 3.89183 9.52219C3.59146 9.60432 3.26408 9.64369 2.92433 9.64369C2.68808 9.64369 2.44958 9.63019 2.22571 9.58069C2.70383 11.0421 4.06058 12.1164 5.67383 12.1513C4.41833 13.1334 2.82421 13.7252 1.09846 13.7252C0.795832 13.7252 0.505582 13.7117 0.215332 13.6746C1.84996 14.7287 3.78721 15.3306 5.87633 15.3306C12.6668 15.3306 16.3793 9.70557 16.3793 4.82982C16.3793 4.66669 16.3737 4.50919 16.3658 4.35282C17.0982 3.83307 17.7136 3.18394 18.2153 2.43694Z" fill="#E5E5E5"/>
</svg>
