<svg width="19" height="12" viewBox="0 0 19 12" fill="none" xmlns="http://www.w3.org/2000/svg">
<path d="M18.3991 1.14784C18.5249 0.73014 18.3991 0.423828 17.8045 0.423828H15.8346C15.3333 0.423828 15.1043 0.688819 14.9785 0.97986C14.9785 0.97986 13.9769 3.42226 12.5577 5.00592C12.0995 5.46673 11.8902 5.61226 11.6405 5.61226C11.5157 5.61226 11.3342 5.46673 11.3342 5.04904V1.14784C11.3342 0.6466 11.1896 0.423828 10.7719 0.423828H7.67643C7.36383 0.423828 7.1752 0.655583 7.1752 0.876558C7.1752 1.35085 7.88483 1.46044 7.95759 2.79707V5.69669C7.95759 6.33177 7.84351 6.44765 7.592 6.44765C6.92458 6.44765 5.3005 3.99626 4.33665 1.19006C4.14891 0.644804 3.95938 0.424727 3.45634 0.424727H1.48733C0.924113 0.424727 0.811829 0.689717 0.811829 0.980758C0.811829 1.50355 1.47925 4.09058 3.92075 7.5121C5.54842 9.84851 7.83992 11.1151 9.92751 11.1151C11.1788 11.1151 11.3333 10.8339 11.3333 10.3489V8.58285C11.3333 8.02053 11.4528 7.90734 11.8489 7.90734C12.14 7.90734 12.6412 8.05466 13.8098 9.1802C15.1447 10.515 15.3657 11.1142 16.1157 11.1142H18.0847C18.647 11.1142 18.9282 10.833 18.7665 10.2779C18.5896 9.72545 17.9518 8.92149 17.1056 7.97022C16.6457 7.42767 15.9585 6.84379 15.7492 6.55185C15.4573 6.17547 15.5417 6.00929 15.7492 5.67513C15.7501 5.67603 18.1494 2.29673 18.3991 1.14784V1.14784Z" fill="#E5E5E5"/>
</svg>
