<svg width="20" height="20" viewBox="0 0 20 20" fill="none" xmlns="http://www.w3.org/2000/svg">
<circle cx="10" cy="10" r="10" fill="#4C7FBB"/>
<g clip-path="url(#clip0_1288:1590)">
<path d="M16.1194 13.7144C16.104 13.6813 16.0897 13.6538 16.0764 13.6318C15.856 13.235 15.435 12.7479 14.8135 12.1705L14.8004 12.1573L14.7938 12.1508L14.7872 12.1442H14.7805C14.4985 11.8753 14.3199 11.6945 14.2451 11.6019C14.1082 11.4256 14.0775 11.2472 14.1523 11.0663C14.2052 10.9297 14.4037 10.6412 14.7474 10.2003C14.9282 9.96668 15.0714 9.77943 15.1771 9.63836C15.9397 8.62454 16.2703 7.97669 16.1689 7.69457L16.1295 7.62864C16.103 7.58895 16.0347 7.55264 15.9246 7.51952C15.8143 7.48648 15.6733 7.48101 15.5014 7.50303L13.5973 7.51619C13.5664 7.50526 13.5224 7.50628 13.465 7.51952C13.4077 7.53277 13.379 7.53941 13.379 7.53941L13.3459 7.55597L13.3196 7.57586C13.2975 7.58902 13.2733 7.61215 13.2468 7.64522C13.2205 7.67817 13.1985 7.71684 13.1809 7.76091C12.9736 8.29425 12.7379 8.79011 12.4734 9.24848C12.3103 9.52181 12.1605 9.75868 12.0237 9.95924C11.8871 10.1597 11.7725 10.3075 11.68 10.4021C11.5874 10.4969 11.5038 10.5729 11.4287 10.6302C11.3537 10.6876 11.2965 10.7119 11.2569 10.703C11.2172 10.6941 11.1798 10.6853 11.1444 10.6765C11.0827 10.6368 11.0331 10.5828 10.9957 10.5145C10.9581 10.4462 10.9328 10.3602 10.9196 10.2567C10.9065 10.153 10.8987 10.0638 10.8965 9.98889C10.8944 9.91402 10.8954 9.80812 10.8998 9.67149C10.9044 9.5348 10.9065 9.44231 10.9065 9.39382C10.9065 9.2263 10.9097 9.04449 10.9163 8.84835C10.923 8.65221 10.9284 8.4968 10.9329 8.38231C10.9374 8.26771 10.9394 8.14646 10.9394 8.01863C10.9394 7.8908 10.9317 7.79055 10.9163 7.71779C10.9011 7.64513 10.8778 7.57459 10.847 7.50621C10.8161 7.43789 10.7709 7.38505 10.7115 7.34753C10.652 7.31007 10.5781 7.28033 10.49 7.25824C10.2564 7.20537 9.9589 7.17677 9.5974 7.17233C8.77761 7.16353 8.25085 7.21646 8.01724 7.33107C7.92468 7.37949 7.84092 7.44565 7.76603 7.52934C7.68667 7.62635 7.67561 7.67928 7.7329 7.68799C7.9974 7.72761 8.18465 7.8224 8.29485 7.97224L8.33457 8.05165C8.36546 8.10894 8.3963 8.21037 8.42717 8.3558C8.45799 8.50122 8.47789 8.6621 8.48664 8.83832C8.50864 9.16014 8.50864 9.43562 8.48664 9.66478C8.46457 9.89403 8.44373 10.0725 8.42384 10.2003C8.40394 10.3282 8.37421 10.4317 8.33457 10.5111C8.29485 10.5904 8.26843 10.6389 8.25518 10.6565C8.24196 10.6741 8.23094 10.6852 8.22218 10.6895C8.16489 10.7115 8.10531 10.7227 8.04364 10.7227C7.98188 10.7227 7.90699 10.6918 7.81886 10.63C7.73074 10.5683 7.63929 10.4835 7.54451 10.3755C7.44973 10.2675 7.34284 10.1165 7.22379 9.92259C7.10483 9.72867 6.9814 9.49948 6.85357 9.23503L6.74781 9.04324C6.6817 8.91986 6.59139 8.74021 6.47678 8.50444C6.36211 8.26859 6.26075 8.04044 6.17264 7.82006C6.13741 7.7275 6.0845 7.65703 6.01399 7.60854L5.98089 7.58865C5.9589 7.57105 5.92358 7.55236 5.87514 7.53244C5.82662 7.51255 5.776 7.49829 5.72306 7.48951L3.9115 7.50266C3.72638 7.50266 3.60078 7.5446 3.53464 7.62836L3.50817 7.66798C3.49495 7.69005 3.48828 7.7253 3.48828 7.77381C3.48828 7.8223 3.5015 7.88182 3.52797 7.95228C3.79243 8.57382 4.08002 9.17324 4.39074 9.75064C4.70146 10.328 4.97147 10.7932 5.20061 11.1456C5.4298 11.4982 5.66341 11.8311 5.90144 12.1439C6.13948 12.4569 6.29704 12.6574 6.37413 12.7456C6.45131 12.8338 6.51193 12.8998 6.556 12.9439L6.72132 13.1026C6.8271 13.2084 6.98244 13.3351 7.18741 13.4827C7.39242 13.6304 7.61938 13.7758 7.86841 13.9192C8.11749 14.0623 8.40726 14.1791 8.73787 14.2695C9.06844 14.3599 9.39018 14.3962 9.70315 14.3787H10.4635C10.6177 14.3654 10.7345 14.3169 10.8139 14.2332L10.8402 14.2001C10.8579 14.1738 10.8745 14.1329 10.8898 14.0779C10.9052 14.0228 10.9129 13.9621 10.9129 13.8961C10.9084 13.7066 10.9228 13.5358 10.9558 13.3837C10.9888 13.2317 11.0263 13.1171 11.0683 13.04C11.1103 12.9628 11.1577 12.8978 11.2104 12.845C11.2633 12.7922 11.3009 12.7601 11.323 12.7491C11.345 12.738 11.3625 12.7305 11.3757 12.726C11.4815 12.6907 11.606 12.7249 11.7494 12.8285C11.8927 12.9321 12.027 13.06 12.1527 13.212C12.2784 13.3642 12.4293 13.5348 12.6056 13.7243C12.782 13.9139 12.9362 14.0548 13.0684 14.1475L13.2006 14.2269C13.2888 14.2798 13.4034 14.3283 13.5445 14.3723C13.6853 14.4164 13.8087 14.4274 13.9147 14.4054L15.6071 14.379C15.7745 14.379 15.9048 14.3513 15.9972 14.2963C16.0898 14.2412 16.1448 14.1805 16.1625 14.1145C16.1802 14.0484 16.1812 13.9734 16.1659 13.8896C16.1502 13.8059 16.1348 13.7475 16.1194 13.7144Z" fill="white"/>
</g>
<defs>
<clipPath id="clip0_1288:1590">
<rect width="12.6984" height="12.6984" fill="white" transform="translate(3.48828 4.44458)"/>
</clipPath>
</defs>
</svg>
