<svg width="67" height="67" viewBox="0 0 67 67" fill="none" xmlns="http://www.w3.org/2000/svg">
<g clip-path="url(#clip0_1194:3903)">
<path d="M1.55648 67C1.18026 67 0.814259 66.8512 0.542829 66.5768C0.18501 66.2148 0.0469942 65.6894 0.181432 65.1981L4.53711 49.2926C1.82535 44.3889 0.395612 38.8417 0.397656 33.2107C0.405324 14.898 15.308 0 33.6191 0C42.5006 0.00357819 50.846 3.46317 57.1185 9.74033C63.3901 16.018 66.8425 24.3628 66.84 33.2373C66.8318 51.5504 51.9292 66.4495 33.6191 66.4495C33.6191 66.4495 33.6053 66.4495 33.6048 66.4495C28.2564 66.4474 22.954 65.1439 18.2329 62.675L1.91787 66.9535C1.79826 66.9847 1.6766 67 1.55648 67Z" fill="white"/>
<path d="M1.55664 65.5745L6.0672 49.1031C3.2849 44.2822 1.82143 38.8137 1.82347 33.2113C1.83063 15.6849 16.0933 1.42578 33.6192 1.42578C42.1241 1.42936 50.107 4.73969 56.1102 10.748C62.1128 16.7563 65.4176 24.7428 65.4145 33.2369C65.4068 50.7628 51.1421 65.0239 33.6192 65.0239C33.6182 65.0239 33.6197 65.0239 33.6192 65.0239H33.6054C28.2842 65.0219 23.0559 63.6872 18.4119 61.1544L1.55664 65.5745ZM19.1925 55.4002L20.1581 55.9722C24.2147 58.3798 28.8659 59.6531 33.609 59.6556H33.6192C48.1845 59.6556 60.0395 47.8027 60.0457 33.2348C60.0482 26.1751 57.3022 19.5365 52.3127 14.5429C47.3227 9.54929 40.6882 6.79766 33.6289 6.79459C19.0519 6.79459 7.1974 18.6461 7.19177 33.2134C7.18973 38.2054 8.58624 43.0667 11.2321 47.2736L11.8608 48.2734L9.19045 58.0225L19.1925 55.4002Z" fill="white"/>
<path d="M2.66406 64.4643L7.01872 48.5623C4.33201 43.9086 2.91965 38.6288 2.92118 33.2211C2.92783 16.3014 16.6972 2.53613 33.6154 2.53613C41.8268 2.53971 49.5337 5.73554 55.3278 11.5358C61.1235 17.336 64.3132 25.046 64.3101 33.2451C64.3029 50.1654 50.533 63.9322 33.6169 63.9322C33.6154 63.9322 33.6174 63.9322 33.6169 63.9322H33.6031C28.4664 63.9301 23.4186 62.6409 18.9356 60.1976L2.66406 64.4643Z" fill="#64B161"/>
<path d="M1.55664 65.5745L6.0672 49.1031C3.2849 44.2822 1.82143 38.8137 1.82347 33.2113C1.83063 15.6849 16.0933 1.42578 33.6192 1.42578C42.1241 1.42936 50.107 4.73969 56.1102 10.748C62.1128 16.7563 65.4176 24.7428 65.4145 33.2369C65.4068 50.7628 51.1421 65.0239 33.6192 65.0239C33.6182 65.0239 33.6197 65.0239 33.6192 65.0239H33.6054C28.2842 65.0219 23.0559 63.6872 18.4119 61.1544L1.55664 65.5745ZM19.1925 55.4002L20.1581 55.9722C24.2147 58.3798 28.8659 59.6531 33.609 59.6556H33.6192C48.1845 59.6556 60.0395 47.8027 60.0457 33.2348C60.0482 26.1751 57.3022 19.5365 52.3127 14.5429C47.3227 9.54929 40.6882 6.79766 33.6289 6.79459C19.0519 6.79459 7.1974 18.6461 7.19177 33.2134C7.18973 38.2054 8.58624 43.0667 11.2321 47.2736L11.8608 48.2734L9.19045 58.0225L19.1925 55.4002Z" fill="white"/>
<path fill-rule="evenodd" clip-rule="evenodd" d="M25.6728 19.9236C25.0778 18.6007 24.4511 18.5742 23.8847 18.5511C23.4216 18.5312 22.8915 18.5322 22.3624 18.5322C21.8329 18.5322 20.9721 18.7316 20.2442 19.5265C19.5157 20.3213 17.4629 22.2433 17.4629 26.1522C17.4629 30.0617 20.3101 33.8387 20.7073 34.3693C21.1045 34.8994 26.2034 43.1772 34.2783 46.3618C40.9895 49.0087 42.3548 48.4821 43.8116 48.3498C45.2685 48.2174 48.5118 46.4278 49.1738 44.5727C49.8363 42.7177 49.8363 41.128 49.6374 40.7952C49.4386 40.4645 48.909 40.2656 48.1146 39.8684C47.3203 39.4713 43.4144 37.5488 42.686 37.284C41.9576 37.0187 41.428 36.8868 40.8985 37.6822C40.3684 38.4765 38.8471 40.2656 38.3835 40.7952C37.9199 41.3263 37.4563 41.3927 36.6619 40.9951C35.8675 40.5969 33.3086 39.7585 30.2733 37.0519C27.9117 34.9464 26.3169 32.3456 25.8532 31.5502C25.3901 30.7558 25.8456 30.3632 26.2024 29.9293C26.8449 29.1477 27.9229 27.7425 28.1877 27.2129C28.4525 26.6823 28.3201 26.2187 28.1218 25.821C27.9229 25.4238 26.3787 21.495 25.6728 19.9236Z" fill="white"/>
</g>
<defs>
<clipPath id="clip0_1194:3903">
<rect width="67" height="67" fill="white"/>
</clipPath>
</defs>
</svg>
