<svg width="40" height="40" viewBox="0 0 40 40" fill="none" xmlns="http://www.w3.org/2000/svg">
<g clip-path="url(#clip0)">
<path d="M2.49952 2.72166C-0.643815 5.98666 -0.00048171 9.455 -0.00048171 19.9917C-0.00048171 28.7417 -1.52715 37.5133 6.46285 39.5783C8.95785 40.22 31.0645 40.22 33.5562 39.575C36.8829 38.7167 39.5895 36.0183 39.9595 31.3133C40.0112 30.6567 40.0112 9.33833 39.9579 8.66833C39.5645 3.65666 36.4795 0.768329 32.4145 0.183329C31.4828 0.0483293 31.2962 0.00832928 26.5162 -4.05312e-06C9.56118 0.00832928 5.84452 -0.746671 2.49952 2.72166Z" fill="url(#paint0_linear)"/>
<path d="M19.9977 5.23203C13.946 5.23203 8.19933 4.69369 6.00433 10.327C5.09766 12.6537 5.22933 15.6754 5.22933 20.002C5.22933 23.7987 5.10766 27.367 6.00433 29.6754C8.19433 35.312 13.9877 34.772 19.9943 34.772C25.7893 34.772 31.7643 35.3754 33.986 29.6754C34.8943 27.3254 34.761 24.3487 34.761 20.002C34.761 14.232 35.0793 10.507 32.281 7.71036C29.4477 4.87703 25.616 5.23203 19.991 5.23203H19.9977ZM18.6743 7.89369C31.2977 7.87369 32.9043 6.47036 32.0177 25.9654C31.7027 32.8604 26.4527 32.1037 19.9993 32.1037C8.23266 32.1037 7.89433 31.767 7.89433 19.9954C7.89433 8.08703 8.82766 7.90036 18.6743 7.89036V7.89369ZM27.881 10.3454C26.9027 10.3454 26.1093 11.1387 26.1093 12.117C26.1093 13.0954 26.9027 13.8887 27.881 13.8887C28.8593 13.8887 29.6527 13.0954 29.6527 12.117C29.6527 11.1387 28.8593 10.3454 27.881 10.3454ZM19.9977 12.417C15.8093 12.417 12.4143 15.8137 12.4143 20.002C12.4143 24.1904 15.8093 27.5854 19.9977 27.5854C24.186 27.5854 27.5793 24.1904 27.5793 20.002C27.5793 15.8137 24.186 12.417 19.9977 12.417ZM19.9977 15.0787C26.506 15.0787 26.5143 24.9254 19.9977 24.9254C13.491 24.9254 13.481 15.0787 19.9977 15.0787Z" fill="white"/>
</g>
<defs>
<linearGradient id="paint0_linear" x1="2.57622" y1="37.4452" x2="39.752" y2="5.26996" gradientUnits="userSpaceOnUse">
<stop stop-color="#FFDD55"/>
<stop offset="0.5" stop-color="#FF543E"/>
<stop offset="1" stop-color="#C837AB"/>
</linearGradient>
<clipPath id="clip0">
<rect width="40" height="40" rx="20" fill="white"/>
</clipPath>
</defs>
</svg>
