<svg width="40" height="40" viewBox="0 0 40 40" fill="none" xmlns="http://www.w3.org/2000/svg">
<circle cx="20" cy="20" r="20" fill="#4C7FBB"/>
<g clip-path="url(#clip0)">
<path d="M32.2466 27.4279C32.2158 27.3616 32.1871 27.3066 32.1605 27.2626C31.7199 26.469 30.8778 25.4949 29.6349 24.3401L29.6086 24.3136L29.5955 24.3007L29.5822 24.2874H29.5689C29.0048 23.7496 28.6475 23.388 28.4979 23.2029C28.2242 22.8503 28.1629 22.4933 28.3125 22.1317C28.4182 21.8584 28.8152 21.2813 29.5026 20.3996C29.8642 19.9324 30.1505 19.5579 30.362 19.2757C31.8872 17.2481 32.5484 15.9524 32.3455 15.3882L32.2668 15.2563C32.2138 15.1769 32.0772 15.1043 31.8571 15.0381C31.6364 14.972 31.3544 14.961 31.0105 15.0051L27.2024 15.0314C27.1407 15.0095 27.0526 15.0116 26.9378 15.0381C26.8232 15.0646 26.7659 15.0779 26.7659 15.0779L26.6996 15.111L26.647 15.1508C26.6029 15.1771 26.5544 15.2233 26.5015 15.2895C26.4488 15.3554 26.4048 15.4327 26.3696 15.5208C25.955 16.5875 25.4836 17.5792 24.9545 18.496C24.6283 19.0426 24.3288 19.5164 24.0552 19.9175C23.782 20.3185 23.5528 20.6139 23.3678 20.8033C23.1825 20.9929 23.0153 21.1447 22.8652 21.2595C22.7153 21.3742 22.6008 21.4227 22.5216 21.405C22.4422 21.3873 22.3674 21.3697 22.2965 21.3521C22.1732 21.2727 22.074 21.1647 21.9992 21.0281C21.9241 20.8915 21.8735 20.7195 21.8471 20.5123C21.8208 20.305 21.8052 20.1267 21.8007 19.9768C21.7966 19.8271 21.7985 19.6153 21.8075 19.342C21.8166 19.0686 21.8208 18.8836 21.8208 18.7867C21.8208 18.4516 21.8273 18.088 21.8404 17.6957C21.8537 17.3034 21.8645 16.9926 21.8735 16.7636C21.8825 16.5344 21.8867 16.2919 21.8867 16.0363C21.8867 15.7806 21.8711 15.5801 21.8404 15.4346C21.81 15.2893 21.7634 15.1482 21.7019 15.0114C21.6401 14.8748 21.5496 14.7691 21.4308 14.6941C21.3118 14.6192 21.1639 14.5597 20.9879 14.5155C20.5206 14.4098 19.9256 14.3526 19.2026 14.3437C17.563 14.3261 16.5095 14.432 16.0423 14.6612C15.8572 14.758 15.6897 14.8903 15.5399 15.0577C15.3812 15.2517 15.359 15.3576 15.4736 15.375C16.0026 15.4542 16.3771 15.6438 16.5975 15.9435L16.6769 16.1023C16.7387 16.2169 16.8004 16.4198 16.8622 16.7106C16.9238 17.0015 16.9636 17.3232 16.9811 17.6757C17.0251 18.3193 17.0251 18.8703 16.9811 19.3286C16.937 19.7871 16.8953 20.144 16.8555 20.3997C16.8157 20.6553 16.7562 20.8625 16.6769 21.0211C16.5975 21.1798 16.5447 21.2768 16.5182 21.312C16.4917 21.3472 16.4697 21.3694 16.4522 21.3781C16.3376 21.422 16.2184 21.4444 16.0951 21.4444C15.9716 21.4444 15.8218 21.3826 15.6455 21.2591C15.4693 21.1356 15.2864 20.966 15.0968 20.75C14.9073 20.534 14.6935 20.232 14.4554 19.8442C14.2175 19.4564 13.9706 18.998 13.715 18.4691L13.5034 18.0855C13.3712 17.8387 13.1906 17.4794 12.9614 17.0079C12.732 16.5362 12.5293 16.0799 12.3531 15.6391C12.2826 15.454 12.1768 15.3131 12.0358 15.2161L11.9696 15.1763C11.9256 15.1411 11.855 15.1037 11.7581 15.0639C11.6611 15.0241 11.5598 14.9956 11.4539 14.978L7.83082 15.0044C7.46058 15.0044 7.20937 15.0882 7.0771 15.2557L7.02416 15.335C6.99771 15.3791 6.98438 15.4496 6.98438 15.5466C6.98438 15.6436 7.01082 15.7627 7.06376 15.9036C7.59267 17.1467 8.16784 18.3455 8.78929 19.5003C9.41074 20.6551 9.95076 21.5853 10.409 22.2901C10.8674 22.9955 11.3346 23.6611 11.8107 24.2869C12.2868 24.9128 12.6019 25.3139 12.7561 25.4901C12.9104 25.6667 13.0317 25.7987 13.1198 25.8868L13.4505 26.2041C13.662 26.4157 13.9727 26.6692 14.3826 26.9644C14.7926 27.2599 15.2466 27.5507 15.7446 27.8374C16.2428 28.1237 16.8223 28.3573 17.4836 28.538C18.1447 28.7189 18.7882 28.7914 19.4141 28.7564H20.9348C21.2432 28.7298 21.4769 28.6328 21.6357 28.4654L21.6883 28.3991C21.7237 28.3465 21.7568 28.2648 21.7874 28.1548C21.8183 28.0446 21.8337 27.9232 21.8337 27.7912C21.8246 27.4122 21.8535 27.0706 21.9194 26.7665C21.9854 26.4625 22.0605 26.2333 22.1445 26.0789C22.2285 25.9247 22.3232 25.7946 22.4287 25.6891C22.5344 25.5833 22.6097 25.5193 22.6539 25.4972C22.6978 25.475 22.7328 25.46 22.7593 25.451C22.9708 25.3805 23.2198 25.4487 23.5066 25.6561C23.7931 25.8633 24.0619 26.119 24.3133 26.4231C24.5646 26.7273 24.8664 27.0687 25.219 27.4477C25.5717 27.8268 25.8802 28.1087 26.1446 28.2941L26.4089 28.4527C26.5855 28.5586 26.8147 28.6556 27.0968 28.7437C27.3785 28.8318 27.6252 28.8539 27.8371 28.8098L31.2221 28.757C31.5569 28.757 31.8174 28.7016 32.0022 28.5916C32.1874 28.4814 32.2974 28.36 32.3329 28.228C32.3682 28.0958 32.3701 27.9458 32.3396 27.7782C32.3082 27.6109 32.2773 27.494 32.2466 27.4279Z" fill="white"/>
</g>
<defs>
<clipPath id="clip0">
<rect width="25.3968" height="25.3968" fill="white" transform="translate(6.98438 8.88867)"/>
</clipPath>
</defs>
</svg>
