<svg width="40" height="40" viewBox="0 0 40 40" fill="none" xmlns="http://www.w3.org/2000/svg">
<circle cx="20" cy="20" r="20" fill="#64B161"/>
<g clip-path="url(#clip0)">
<path d="M20.3174 7.61914C13.6653 7.61914 8.25391 13.0305 8.25391 19.6826C8.25391 21.952 8.88446 24.1549 10.0806 26.0679C9.60409 27.7373 8.74341 30.8952 8.73413 30.9281C8.68958 31.0914 8.73737 31.2659 8.8594 31.3833C8.98143 31.5007 9.15774 31.5424 9.31828 31.4933L14.1001 30.0224C15.9731 31.1508 18.1181 31.7461 20.3174 31.7461C26.9695 31.7461 32.3809 26.3347 32.3809 19.6826C32.3809 13.0305 26.9695 7.61914 20.3174 7.61914ZM20.3174 30.8182C18.2207 30.8182 16.1782 30.2322 14.4105 29.1242C14.3358 29.0773 14.2499 29.0536 14.1641 29.0536C14.1182 29.0536 14.0722 29.0606 14.0277 29.0741L9.85232 30.3593C10.159 29.2397 10.7102 27.2372 11.0299 26.1231C11.067 25.9942 11.0461 25.855 10.9733 25.7422C9.80128 23.9387 9.18187 21.8434 9.18187 19.6826C9.18187 13.5428 14.1775 8.5471 20.3174 8.5471C26.4573 8.5471 31.4529 13.5428 31.4529 19.6826C31.4529 25.8225 26.4573 30.8182 20.3174 30.8182Z" fill="white"/>
<path d="M28.1968 22.5249C27.3403 22.0494 26.611 21.5724 26.0788 21.2244C25.6723 20.959 25.3786 20.7674 25.1633 20.6593C24.5616 20.3591 24.1055 20.5711 23.9319 20.7465C23.9101 20.7683 23.8906 20.792 23.8739 20.817C23.249 21.7547 22.4328 22.6516 22.1939 22.6999C21.9178 22.6567 20.6256 21.9222 19.3413 20.8527C18.0301 19.7601 17.2051 18.7138 17.084 18.0011C17.9252 17.1353 18.2282 16.5906 18.2282 15.9707C18.2282 15.3318 16.7379 12.6644 16.4683 12.3948C16.1978 12.1248 15.5886 12.0826 14.6574 12.2682C14.5679 12.2863 14.4853 12.3304 14.4203 12.3948C14.3076 12.5076 11.6694 15.1973 12.9231 18.4572C14.2992 22.035 17.8315 26.1936 22.3349 26.8692C22.8467 26.9457 23.3264 26.9838 23.7756 26.9838C26.4249 26.9838 27.9885 25.6508 28.4288 23.0065C28.4618 22.8131 28.3685 22.6201 28.1968 22.5249ZM22.4727 25.9514C17.7104 25.2374 14.7108 20.5191 13.7893 18.1241C12.8753 15.7485 14.5609 13.6304 14.9841 13.1516C15.3283 13.0931 15.6907 13.0685 15.842 13.0922C16.1579 13.5316 17.252 15.5986 17.3003 15.9707C17.3003 16.2143 17.2209 16.5535 16.2763 17.4986C16.189 17.5854 16.1403 17.7032 16.1403 17.8267C16.1403 20.2561 21.2645 23.6264 22.1721 23.6264C22.9613 23.6264 23.9904 22.2999 24.5764 21.4355C24.6103 21.4369 24.6673 21.4485 24.7485 21.4893C24.9156 21.5733 25.2051 21.7622 25.5712 22.0016C26.0546 22.3175 26.6968 22.737 27.4549 23.1717C27.1107 24.8281 26.1484 26.5036 22.4727 25.9514Z" fill="white"/>
</g>
<defs>
<clipPath id="clip0">
<rect width="24.127" height="24.127" fill="white" transform="translate(8.25391 7.61914)"/>
</clipPath>
</defs>
</svg>
