<svg width="44" height="44" viewBox="0 0 44 44" fill="none" xmlns="http://www.w3.org/2000/svg">
<circle cx="22" cy="22" r="21" stroke="#3378C4" stroke-width="2"/>
<path d="M20.3763 17.2499C20.3758 17.4932 20.4606 17.7291 20.6159 17.9165L25.2826 23.4999L20.7826 29.0936C20.696 29.2002 20.6314 29.3228 20.5924 29.4544C20.5534 29.586 20.5408 29.724 20.5554 29.8605C20.5699 29.997 20.6112 30.1292 20.677 30.2497C20.7428 30.3701 20.8318 30.4764 20.9388 30.5624C21.0454 30.6489 21.168 30.7135 21.2996 30.7525C21.4312 30.7915 21.5692 30.8041 21.7057 30.7896C21.8422 30.775 21.9744 30.7337 22.0949 30.6679C22.2153 30.6021 22.3216 30.5131 22.4076 30.4061L27.4388 24.1561C27.592 23.9697 27.6758 23.7359 27.6758 23.4947C27.6758 23.2534 27.592 23.0196 27.4388 22.8332L22.2305 16.5832C22.143 16.4777 22.0356 16.3905 21.9144 16.3266C21.7932 16.2627 21.6606 16.2233 21.5242 16.2108C21.3878 16.1982 21.2502 16.2126 21.1194 16.2533C20.9885 16.294 20.867 16.3601 20.7617 16.4478C20.6422 16.5447 20.5457 16.6669 20.4791 16.8056C20.4124 16.9443 20.3773 17.096 20.3763 17.2499Z" fill="#3378C4"/>
</svg>
