<svg width="18" height="11" viewBox="0 0 18 11" fill="none" xmlns="http://www.w3.org/2000/svg">
<path d="M4.82439 10.084C4.06839 10.084 3.39172 9.88333 2.79439 9.482C2.20639 9.08067 1.74439 8.50667 1.40839 7.76C1.08172 7.004 0.918391 6.11733 0.918391 5.1C0.918391 4.08267 1.08172 3.20067 1.40839 2.454C1.74439 1.698 2.20639 1.11933 2.79439 0.717999C3.39172 0.316666 4.06839 0.116 4.82439 0.116C5.58039 0.116 6.25239 0.316666 6.84039 0.717999C7.43772 1.11933 7.90439 1.698 8.24039 2.454C8.57639 3.20067 8.74439 4.08267 8.74439 5.1C8.74439 6.11733 8.57639 7.004 8.24039 7.76C7.90439 8.50667 7.43772 9.08067 6.84039 9.482C6.25239 9.88333 5.58039 10.084 4.82439 10.084ZM4.82439 9.16C5.39372 9.16 5.89306 9.00133 6.32239 8.684C6.76106 8.36667 7.10172 7.90467 7.34439 7.298C7.58706 6.69133 7.70839 5.95867 7.70839 5.1C7.70839 4.24133 7.58706 3.50867 7.34439 2.902C7.10172 2.29533 6.76106 1.83333 6.32239 1.516C5.89306 1.19867 5.39372 1.04 4.82439 1.04C4.25506 1.04 3.75106 1.19867 3.31239 1.516C2.88306 1.83333 2.54706 2.29533 2.30439 2.902C2.06172 3.50867 1.94039 4.24133 1.94039 5.1C1.94039 5.95867 2.06172 6.69133 2.30439 7.298C2.54706 7.90467 2.88306 8.36667 3.31239 8.684C3.75106 9.00133 4.25506 9.16 4.82439 9.16ZM17.2726 9.104V10H10.3986V9.286L14.4726 5.296C14.9859 4.792 15.3312 4.358 15.5086 3.994C15.6952 3.62067 15.7886 3.24733 15.7886 2.874C15.7886 2.29533 15.5879 1.84733 15.1866 1.53C14.7946 1.20333 14.2299 1.04 13.4926 1.04C12.3446 1.04 11.4532 1.404 10.8186 2.132L10.1046 1.516C10.4872 1.068 10.9726 0.722666 11.5606 0.48C12.1579 0.237333 12.8299 0.116 13.5766 0.116C14.5752 0.116 15.3639 0.354 15.9426 0.83C16.5306 1.29667 16.8246 1.94067 16.8246 2.762C16.8246 3.266 16.7126 3.75133 16.4886 4.218C16.2646 4.68467 15.8399 5.22133 15.2146 5.828L11.8826 9.104H17.2726Z" fill="#CACACA"/>
</svg>
