<svg width="14" height="11" viewBox="0 0 14 11" fill="none" xmlns="http://www.w3.org/2000/svg">
<path d="M4.77361 10.084C4.01761 10.084 3.34094 9.88333 2.74361 9.482C2.15561 9.08067 1.69361 8.50667 1.35761 7.76C1.03094 7.004 0.867609 6.11733 0.867609 5.1C0.867609 4.08267 1.03094 3.20067 1.35761 2.454C1.69361 1.698 2.15561 1.11933 2.74361 0.717999C3.34094 0.316666 4.01761 0.116 4.77361 0.116C5.52961 0.116 6.20161 0.316666 6.78961 0.717999C7.38694 1.11933 7.85361 1.698 8.18961 2.454C8.52561 3.20067 8.69361 4.08267 8.69361 5.1C8.69361 6.11733 8.52561 7.004 8.18961 7.76C7.85361 8.50667 7.38694 9.08067 6.78961 9.482C6.20161 9.88333 5.52961 10.084 4.77361 10.084ZM4.77361 9.16C5.34294 9.16 5.84228 9.00133 6.27161 8.684C6.71028 8.36667 7.05094 7.90467 7.29361 7.298C7.53628 6.69133 7.65761 5.95867 7.65761 5.1C7.65761 4.24133 7.53628 3.50867 7.29361 2.902C7.05094 2.29533 6.71028 1.83333 6.27161 1.516C5.84228 1.19867 5.34294 1.04 4.77361 1.04C4.20428 1.04 3.70028 1.19867 3.26161 1.516C2.83228 1.83333 2.49628 2.29533 2.25361 2.902C2.01094 3.50867 1.88961 4.24133 1.88961 5.1C1.88961 5.95867 2.01094 6.69133 2.25361 7.298C2.49628 7.90467 2.83228 8.36667 3.26161 8.684C3.70028 9.00133 4.20428 9.16 4.77361 9.16ZM13.2458 0.199999V10H12.2378V1.096H9.9278V0.199999H13.2458Z" fill="#CACACA"/>
</svg>
