<svg width="17" height="11" viewBox="0 0 17 11" fill="none" xmlns="http://www.w3.org/2000/svg">
<path d="M3.90642 10.084C3.15042 10.084 2.47376 9.88333 1.87642 9.482C1.28842 9.08067 0.826422 8.50667 0.490422 7.76C0.163755 7.004 0.000421852 6.11733 0.000421852 5.1C0.000421852 4.08267 0.163755 3.20067 0.490422 2.454C0.826422 1.698 1.28842 1.11933 1.87642 0.717999C2.47376 0.316666 3.15042 0.116 3.90642 0.116C4.66242 0.116 5.33442 0.316666 5.92242 0.717999C6.51976 1.11933 6.98642 1.698 7.32242 2.454C7.65842 3.20067 7.82642 4.08267 7.82642 5.1C7.82642 6.11733 7.65842 7.004 7.32242 7.76C6.98642 8.50667 6.51976 9.08067 5.92242 9.482C5.33442 9.88333 4.66242 10.084 3.90642 10.084ZM3.90642 9.16C4.47576 9.16 4.97509 9.00133 5.40442 8.684C5.84309 8.36667 6.18376 7.90467 6.42642 7.298C6.66909 6.69133 6.79042 5.95867 6.79042 5.1C6.79042 4.24133 6.66909 3.50867 6.42642 2.902C6.18376 2.29533 5.84309 1.83333 5.40442 1.516C4.97509 1.19867 4.47576 1.04 3.90642 1.04C3.33709 1.04 2.83309 1.19867 2.39442 1.516C1.96509 1.83333 1.62909 2.29533 1.38642 2.902C1.14376 3.50867 1.02242 4.24133 1.02242 5.1C1.02242 5.95867 1.14376 6.69133 1.38642 7.298C1.62909 7.90467 1.96509 8.36667 2.39442 8.684C2.83309 9.00133 3.33709 9.16 3.90642 9.16ZM12.8852 4.4C13.9119 4.456 14.6912 4.736 15.2232 5.24C15.7646 5.73467 16.0352 6.38333 16.0352 7.186C16.0352 7.746 15.8999 8.24533 15.6292 8.684C15.3586 9.11333 14.9572 9.454 14.4252 9.706C13.8932 9.958 13.2446 10.084 12.4792 10.084C11.7699 10.084 11.0979 9.972 10.4632 9.748C9.8379 9.51467 9.3339 9.20667 8.95123 8.824L9.44123 8.026C9.7679 8.362 10.2019 8.63733 10.7432 8.852C11.2846 9.05733 11.8632 9.16 12.4792 9.16C13.2819 9.16 13.9026 8.98733 14.3412 8.642C14.7799 8.28733 14.9992 7.802 14.9992 7.186C14.9992 6.57933 14.7799 6.10333 14.3412 5.758C13.9026 5.41267 13.2399 5.24 12.3532 5.24H11.6532V4.498L14.3692 1.096H9.35723V0.199999H15.6572V0.913999L12.8852 4.4Z" fill="#CACACA"/>
</svg>
