<svg width="19" height="11" viewBox="0 0 19 11" fill="none" xmlns="http://www.w3.org/2000/svg">
<path d="M4.66131 10.084C3.9053 10.084 3.22864 9.88333 2.6313 9.482C2.0433 9.08067 1.5813 8.50667 1.2453 7.76C0.918638 7.004 0.755305 6.11733 0.755305 5.1C0.755305 4.08267 0.918638 3.20067 1.2453 2.454C1.5813 1.698 2.0433 1.11933 2.6313 0.717999C3.22864 0.316666 3.9053 0.116 4.66131 0.116C5.41731 0.116 6.08931 0.316666 6.6773 0.717999C7.27464 1.11933 7.74131 1.698 8.07731 2.454C8.4133 3.20067 8.5813 4.08267 8.5813 5.1C8.5813 6.11733 8.4133 7.004 8.07731 7.76C7.74131 8.50667 7.27464 9.08067 6.6773 9.482C6.08931 9.88333 5.41731 10.084 4.66131 10.084ZM4.66131 9.16C5.23064 9.16 5.72997 9.00133 6.1593 8.684C6.59797 8.36667 6.93864 7.90467 7.18131 7.298C7.42397 6.69133 7.5453 5.95867 7.5453 5.1C7.5453 4.24133 7.42397 3.50867 7.18131 2.902C6.93864 2.29533 6.59797 1.83333 6.1593 1.516C5.72997 1.19867 5.23064 1.04 4.66131 1.04C4.09197 1.04 3.58797 1.19867 3.1493 1.516C2.71997 1.83333 2.38397 2.29533 2.1413 2.902C1.89864 3.50867 1.7773 4.24133 1.7773 5.1C1.7773 5.95867 1.89864 6.69133 2.1413 7.298C2.38397 7.90467 2.71997 8.36667 3.1493 8.684C3.58797 9.00133 4.09197 9.16 4.66131 9.16ZM18.7748 7.424H16.8148V10H15.8068V7.424H10.2768V6.696L15.4708 0.199999H16.5908L11.5788 6.528H15.8348V4.26H16.8148V6.528H18.7748V7.424Z" fill="#CACACA"/>
</svg>
