<svg width="15" height="15" viewBox="0 0 15 15" fill="none" xmlns="http://www.w3.org/2000/svg">
<path d="M5.98108 11.5416V14.0551C5.981 14.3313 5.75692 14.5551 5.48057 14.555C5.33884 14.555 5.20381 14.4948 5.10893 14.3896L0.605726 9.38959C0.441047 9.20631 0.43445 8.9305 0.590216 8.73958L5.09345 3.23954C5.26842 3.02582 5.58365 2.9943 5.79755 3.16914C5.91342 3.26386 5.98076 3.40545 5.98108 3.55504V6.04656C9.93394 5.91806 12.4007 4.22955 13.5125 0.896505C13.5807 0.692597 13.7717 0.555106 13.9868 0.555018C14.0138 0.554931 14.0408 0.557127 14.0674 0.561522C14.3095 0.600985 14.4872 0.809932 14.4872 1.05503C14.4872 6.94308 10.9402 11.2686 5.98108 11.5416Z" fill="#001424"/>
</svg>
