<svg width="15" height="15" viewBox="0 0 15 15" fill="none" xmlns="http://www.w3.org/2000/svg">
<path d="M13.8696 10.8296L11.9145 8.87587C11.2163 8.17811 10.0292 8.45724 9.74992 9.36431C9.54044 9.99232 8.84218 10.3412 8.21374 10.2016C6.81722 9.85274 4.93192 8.03855 4.58279 6.57325C4.37331 5.94523 4.79227 5.24747 5.4207 5.03816C6.32844 4.75906 6.60774 3.57286 5.90948 2.87509L3.95436 0.92135C3.39575 0.432914 2.55784 0.432914 2.06905 0.92135L0.74236 2.2471C-0.584334 3.64263 0.882012 7.34079 4.16383 10.6203C7.44566 13.8998 11.1464 15.4349 12.543 14.0393L13.8696 12.7136C14.3585 12.1554 14.3585 11.318 13.8696 10.8296Z" fill="#001424"/>
</svg>
