<svg width="512" height="512" viewBox="0 0 512 512" fill="none" xmlns="http://www.w3.org/2000/svg">
<mask id="mask0" mask-type="alpha" maskUnits="userSpaceOnUse" x="0" y="0" width="512" height="512">
<circle cx="256" cy="256" r="256" fill="#C4C4C4"/>
</mask>
<g mask="url(#mask0)">
<path d="M31.9997 34.8377C-8.23497 76.6297 -0.000306403 121.024 -0.000306403 255.894C-0.000306403 367.894 -19.5416 480.171 82.7304 506.603C114.666 514.816 397.632 514.816 429.525 506.56C472.106 495.574 506.752 461.035 511.488 400.811C512.149 392.406 512.149 119.531 511.466 110.955C506.432 46.8057 466.944 9.83501 414.912 2.34701C402.986 0.619006 400.597 0.107005 339.413 0.000338738C122.389 0.107005 74.8157 -9.557 31.9997 34.8377V34.8377Z" fill="url(#paint0_linear)"/>
</g>
<path d="M255.957 66.9656C178.496 66.9656 104.938 60.075 76.8423 132.182C65.237 161.963 66.9223 200.64 66.9223 256.022C66.9223 304.619 65.365 350.294 76.8423 379.84C104.874 451.99 179.029 445.078 255.914 445.078C330.09 445.078 406.57 452.8 435.008 379.84C446.634 349.76 444.928 311.659 444.928 256.022C444.928 182.166 449.002 134.486 413.184 98.6883C376.917 62.4216 327.872 66.9656 255.872 66.9656H255.957ZM239.018 101.035C400.597 100.779 421.162 82.8163 409.813 332.352C405.781 420.608 338.581 410.923 255.978 410.923C105.365 410.923 101.034 406.614 101.034 255.936C101.034 103.51 112.981 101.12 239.018 100.992V101.035ZM356.864 132.416C344.341 132.416 334.186 142.571 334.186 155.094C334.186 167.616 344.341 177.771 356.864 177.771C369.386 177.771 379.541 167.616 379.541 155.094C379.541 142.571 369.386 132.416 356.864 132.416V132.416ZM255.957 158.934C202.346 158.934 158.89 202.411 158.89 256.022C158.89 309.632 202.346 353.088 255.957 353.088C309.568 353.088 353.002 309.632 353.002 256.022C353.002 202.411 309.568 158.934 255.957 158.934V158.934ZM255.957 193.003C339.264 193.003 339.37 319.04 255.957 319.04C172.672 319.04 172.544 193.003 255.957 193.003Z" fill="white"/>
<defs>
<linearGradient id="paint0_linear" x1="32.9815" y1="479.298" x2="508.831" y2="67.4558" gradientUnits="userSpaceOnUse">
<stop stop-color="#FFDD55"/>
<stop offset="0.5" stop-color="#FF543E"/>
<stop offset="1" stop-color="#C837AB"/>
</linearGradient>
</defs>
</svg>
